<svg width="94" height="90" viewBox="0 0 94 90" fill="none" xmlns="http://www.w3.org/2000/svg">
<mask id="path-1-outside-1_24_390" maskUnits="userSpaceOnUse" x="31" y="9.5" width="25" height="38" fill="black">
<rect fill="white" x="31" y="9.5" width="25" height="38"/>
<path d="M38.0283 20.5977C39.5583 20.4512 40.9987 20.2559 42.3496 20.0117C42.5449 18.9049 42.9193 17.79 43.4727 16.667C44.0423 15.5277 44.7422 14.5023 45.5723 13.5908C46.4023 12.6631 47.3464 11.9144 48.4043 11.3447C49.4622 10.7588 50.5853 10.4658 51.7734 10.4658C52.6198 10.4658 53.3115 10.7507 53.8486 11.3203C54.402 11.8737 54.6787 12.5898 54.6787 13.4688C54.6787 14.2012 54.4508 14.9092 53.9951 15.5928C53.5394 16.2601 52.8802 16.8949 52.0176 17.4971C51.1712 18.083 50.1377 18.6364 48.917 19.1572C47.7126 19.6618 46.3535 20.1094 44.8398 20.5C44.9049 20.8906 45.0026 21.265 45.1328 21.623C45.263 21.9648 45.3851 22.2985 45.499 22.624C45.6292 22.9495 45.735 23.2751 45.8164 23.6006C45.9141 23.9098 45.9629 24.2435 45.9629 24.6016C45.9629 25.6107 45.7188 26.457 45.2305 27.1406C44.7422 27.8242 44.1318 28.4427 43.3994 28.9961C42.667 29.5332 41.8695 30.054 41.0068 30.5586C40.1605 31.0632 39.3711 31.6491 38.6387 32.3164C37.9062 32.9674 37.2959 33.7568 36.8076 34.6846C36.3193 35.596 36.0752 36.7354 36.0752 38.1025C36.0752 39.1768 36.2705 40.1126 36.6611 40.9102C37.068 41.7077 37.5889 42.375 38.2236 42.9121C38.8584 43.4492 39.5583 43.848 40.3232 44.1084C41.1045 44.3688 41.8613 44.499 42.5938 44.499C43.082 44.499 43.611 44.4746 44.1807 44.4258C44.7666 44.3607 45.4176 44.2061 46.1338 43.9619C46.8499 43.7015 47.6393 43.319 48.502 42.8145C49.3646 42.3099 50.3086 41.61 51.334 40.7148L51.9688 41.4961C50.862 42.4238 49.8366 43.1807 48.8926 43.7666C47.9486 44.3363 47.0452 44.7839 46.1826 45.1094C45.3363 45.4349 44.5062 45.6546 43.6924 45.7686C42.8949 45.8825 42.0811 45.9395 41.251 45.9395C40.0791 45.9395 38.9723 45.7848 37.9307 45.4756C36.9053 45.1663 36.0101 44.7106 35.2451 44.1084C34.4801 43.5062 33.8779 42.7575 33.4385 41.8623C32.9827 40.9671 32.7549 39.9336 32.7549 38.7617C32.7549 37.4271 33.0153 36.2715 33.5361 35.2949C34.0407 34.3184 34.6755 33.472 35.4404 32.7559C36.2054 32.0234 37.0273 31.3805 37.9062 30.8271C38.8014 30.2738 39.6315 29.7529 40.3965 29.2646C41.1615 28.7601 41.7962 28.2637 42.3008 27.7754C42.8216 27.2871 43.082 26.7337 43.082 26.1152C43.082 25.8874 43.0332 25.6432 42.9355 25.3828C42.8542 25.1061 42.7565 24.7887 42.6426 24.4307C42.5286 24.0726 42.4229 23.6657 42.3252 23.21C42.2438 22.7542 42.2031 22.2253 42.2031 21.623C42.2031 21.5417 42.2031 21.4603 42.2031 21.3789C42.2031 21.2812 42.2113 21.1836 42.2275 21.0859C41.6579 21.1999 41.0719 21.3057 40.4697 21.4033C39.8675 21.4847 39.2572 21.5661 38.6387 21.6475L38.0283 20.5977ZM44.7422 19.4746C47.151 18.8398 49.0146 18.0098 50.333 16.9844C51.6514 15.959 52.3105 14.7464 52.3105 13.3467C52.3105 12.7282 52.1641 12.2806 51.8711 12.0039C51.5781 11.7109 51.1631 11.5645 50.626 11.5645C50.1377 11.5645 49.5599 11.7516 48.8926 12.126C48.2253 12.484 47.5824 12.9967 46.9639 13.6641C46.3454 14.3314 45.8164 15.1452 45.377 16.1055C44.9538 17.0658 44.7422 18.14 44.7422 19.3281V19.4746Z"/>
</mask>
<path d="M38.0283 20.5977C39.5583 20.4512 40.9987 20.2559 42.3496 20.0117C42.5449 18.9049 42.9193 17.79 43.4727 16.667C44.0423 15.5277 44.7422 14.5023 45.5723 13.5908C46.4023 12.6631 47.3464 11.9144 48.4043 11.3447C49.4622 10.7588 50.5853 10.4658 51.7734 10.4658C52.6198 10.4658 53.3115 10.7507 53.8486 11.3203C54.402 11.8737 54.6787 12.5898 54.6787 13.4688C54.6787 14.2012 54.4508 14.9092 53.9951 15.5928C53.5394 16.2601 52.8802 16.8949 52.0176 17.4971C51.1712 18.083 50.1377 18.6364 48.917 19.1572C47.7126 19.6618 46.3535 20.1094 44.8398 20.5C44.9049 20.8906 45.0026 21.265 45.1328 21.623C45.263 21.9648 45.3851 22.2985 45.499 22.624C45.6292 22.9495 45.735 23.2751 45.8164 23.6006C45.9141 23.9098 45.9629 24.2435 45.9629 24.6016C45.9629 25.6107 45.7188 26.457 45.2305 27.1406C44.7422 27.8242 44.1318 28.4427 43.3994 28.9961C42.667 29.5332 41.8695 30.054 41.0068 30.5586C40.1605 31.0632 39.3711 31.6491 38.6387 32.3164C37.9062 32.9674 37.2959 33.7568 36.8076 34.6846C36.3193 35.596 36.0752 36.7354 36.0752 38.1025C36.0752 39.1768 36.2705 40.1126 36.6611 40.9102C37.068 41.7077 37.5889 42.375 38.2236 42.9121C38.8584 43.4492 39.5583 43.848 40.3232 44.1084C41.1045 44.3688 41.8613 44.499 42.5938 44.499C43.082 44.499 43.611 44.4746 44.1807 44.4258C44.7666 44.3607 45.4176 44.2061 46.1338 43.9619C46.8499 43.7015 47.6393 43.319 48.502 42.8145C49.3646 42.3099 50.3086 41.61 51.334 40.7148L51.9688 41.4961C50.862 42.4238 49.8366 43.1807 48.8926 43.7666C47.9486 44.3363 47.0452 44.7839 46.1826 45.1094C45.3363 45.4349 44.5062 45.6546 43.6924 45.7686C42.8949 45.8825 42.0811 45.9395 41.251 45.9395C40.0791 45.9395 38.9723 45.7848 37.9307 45.4756C36.9053 45.1663 36.0101 44.7106 35.2451 44.1084C34.4801 43.5062 33.8779 42.7575 33.4385 41.8623C32.9827 40.9671 32.7549 39.9336 32.7549 38.7617C32.7549 37.4271 33.0153 36.2715 33.5361 35.2949C34.0407 34.3184 34.6755 33.472 35.4404 32.7559C36.2054 32.0234 37.0273 31.3805 37.9062 30.8271C38.8014 30.2738 39.6315 29.7529 40.3965 29.2646C41.1615 28.7601 41.7962 28.2637 42.3008 27.7754C42.8216 27.2871 43.082 26.7337 43.082 26.1152C43.082 25.8874 43.0332 25.6432 42.9355 25.3828C42.8542 25.1061 42.7565 24.7887 42.6426 24.4307C42.5286 24.0726 42.4229 23.6657 42.3252 23.21C42.2438 22.7542 42.2031 22.2253 42.2031 21.623C42.2031 21.5417 42.2031 21.4603 42.2031 21.3789C42.2031 21.2812 42.2113 21.1836 42.2275 21.0859C41.6579 21.1999 41.0719 21.3057 40.4697 21.4033C39.8675 21.4847 39.2572 21.5661 38.6387 21.6475L38.0283 20.5977ZM44.7422 19.4746C47.151 18.8398 49.0146 18.0098 50.333 16.9844C51.6514 15.959 52.3105 14.7464 52.3105 13.3467C52.3105 12.7282 52.1641 12.2806 51.8711 12.0039C51.5781 11.7109 51.1631 11.5645 50.626 11.5645C50.1377 11.5645 49.5599 11.7516 48.8926 12.126C48.2253 12.484 47.5824 12.9967 46.9639 13.6641C46.3454 14.3314 45.8164 15.1452 45.377 16.1055C44.9538 17.0658 44.7422 18.14 44.7422 19.3281V19.4746Z" fill="black"/>
<path d="M38.0283 20.5977L37.9534 19.8155L36.7327 19.9324L37.3491 20.9926L38.0283 20.5977ZM42.3496 20.0117L42.4893 20.7849L43.0282 20.6875L43.1234 20.1483L42.3496 20.0117ZM43.4727 16.667L42.7699 16.3156L42.7679 16.3197L43.4727 16.667ZM45.5723 13.5908L46.1532 14.1199L46.1578 14.1147L45.5723 13.5908ZM48.4043 11.3447L48.7768 12.0366L48.785 12.0321L48.4043 11.3447ZM53.8486 11.3203L53.277 11.8593L53.2849 11.8677L53.293 11.8759L53.8486 11.3203ZM53.9951 15.5928L54.644 16.0359L54.6489 16.0286L53.9951 15.5928ZM52.0176 17.4971L52.4648 18.1431L52.4673 18.1413L52.0176 17.4971ZM48.917 19.1572L49.2206 19.8819L49.2253 19.8799L48.917 19.1572ZM44.8398 20.5L44.6435 19.7392L43.9465 19.9191L44.0648 20.6292L44.8398 20.5ZM45.1328 21.623L44.3943 21.8916L44.3986 21.9028L45.1328 21.623ZM45.499 22.624L44.7574 22.8836L44.7631 22.8998L44.7695 22.9158L45.499 22.624ZM45.8164 23.6006L45.0542 23.7911L45.06 23.8144L45.0672 23.8372L45.8164 23.6006ZM43.3994 28.9961L43.8641 29.6298L43.8731 29.623L43.3994 28.9961ZM41.0068 30.5586L40.6101 29.8804L40.6045 29.8837L41.0068 30.5586ZM38.6387 32.3164L39.1607 32.9037L39.1678 32.8972L38.6387 32.3164ZM36.8076 34.6846L37.5002 35.0556L37.5029 35.0505L36.8076 34.6846ZM36.6611 40.9102L35.9554 41.2558L35.9612 41.2672L36.6611 40.9102ZM40.3232 44.1084L40.07 44.8522L40.0748 44.8538L40.3232 44.1084ZM44.1807 44.4258L44.2478 45.2086L44.2576 45.2078L44.2674 45.2067L44.1807 44.4258ZM46.1338 43.9619L46.3873 44.7056L46.3948 44.703L46.4023 44.7003L46.1338 43.9619ZM48.502 42.8145L48.1053 42.1362L48.502 42.8145ZM51.334 40.7148L51.9438 40.2194L51.4305 39.5876L50.8173 40.123L51.334 40.7148ZM51.9688 41.4961L52.4735 42.0982L53.0665 41.6012L52.5786 41.0006L51.9688 41.4961ZM48.8926 43.7666L49.2986 44.4394L49.3069 44.4342L48.8926 43.7666ZM46.1826 45.1094L45.9052 44.3742L45.9006 44.376L46.1826 45.1094ZM43.6924 45.7686L43.5834 44.9904L43.5813 44.9907L43.6924 45.7686ZM37.9307 45.4756L37.7038 46.2278L37.7071 46.2288L37.9307 45.4756ZM33.4385 41.8623L34.1439 41.516L34.1387 41.5058L33.4385 41.8623ZM33.5361 35.2949L34.2295 35.6647L34.2342 35.6556L33.5361 35.2949ZM35.4404 32.7559L35.9774 33.3295L35.9838 33.3234L35.4404 32.7559ZM37.9062 30.8271L37.4931 30.1588L37.4876 30.1623L37.9062 30.8271ZM40.3965 29.2646L40.8193 29.927L40.8291 29.9205L40.3965 29.2646ZM42.3008 27.7754L41.7633 27.2021L41.7544 27.2108L42.3008 27.7754ZM42.9355 25.3828L42.1818 25.6045L42.1898 25.6319L42.1999 25.6587L42.9355 25.3828ZM42.3252 23.21L41.5517 23.3481L41.5541 23.3614L41.5569 23.3746L42.3252 23.21ZM42.2275 21.0859L43.0026 21.2151L43.1897 20.0922L42.0734 20.3155L42.2275 21.0859ZM40.4697 21.4033L40.5749 22.182L40.5852 22.1806L40.5955 22.1789L40.4697 21.4033ZM38.6387 21.6475L37.9594 22.0424L38.2224 22.4947L38.7412 22.4265L38.6387 21.6475ZM44.7422 19.4746H43.9565V20.4942L44.9424 20.2344L44.7422 19.4746ZM51.8711 12.0039L51.3155 12.5595L51.3234 12.5674L51.3316 12.5751L51.8711 12.0039ZM48.8926 12.126L49.2641 12.8183L49.2706 12.8148L49.277 12.8112L48.8926 12.126ZM46.9639 13.6641L46.3876 13.13L46.9639 13.6641ZM45.377 16.1055L44.6624 15.7785L44.658 15.7886L45.377 16.1055ZM38.1032 21.3798C39.6524 21.2315 41.1146 21.0334 42.4893 20.7849L42.2099 19.2385C40.8828 19.4784 39.4642 19.6709 37.9534 19.8155L38.1032 21.3798ZM43.1234 20.1483C43.3044 19.1224 43.6532 18.0782 44.1775 17.0143L42.7679 16.3197C42.1853 17.5019 41.7854 18.6875 41.5759 19.8752L43.1234 20.1483ZM44.1754 17.0184C44.7139 15.9414 45.3733 14.9762 46.1532 14.1199L44.9914 13.0618C44.1111 14.0283 43.3707 15.1139 42.7699 16.3156L44.1754 17.0184ZM46.1578 14.1147C46.9294 13.2524 47.8019 12.5614 48.7768 12.0365L48.0318 10.6529C46.8908 11.2673 45.8753 12.0738 44.9867 13.0669L46.1578 14.1147ZM48.785 12.0321C49.7286 11.5094 50.7209 11.2515 51.7734 11.2515V9.68011C50.4496 9.68011 49.1959 10.0081 48.0236 10.6574L48.785 12.0321ZM51.7734 11.2515C52.4229 11.2515 52.9012 11.4608 53.277 11.8593L54.4203 10.7813C53.7219 10.0405 52.8167 9.68011 51.7734 9.68011V11.2515ZM53.293 11.8759C53.6804 12.2632 53.893 12.7702 53.893 13.4688H55.4644C55.4644 12.4095 55.1236 11.4842 54.4042 10.7647L53.293 11.8759ZM53.893 13.4688C53.893 14.0276 53.7219 14.5861 53.3414 15.1569L54.6489 16.0286C55.1798 15.2322 55.4644 14.3748 55.4644 13.4688H53.893ZM53.3463 15.1497C52.9577 15.7187 52.3748 16.2895 51.5678 16.8528L52.4673 18.1413C53.3856 17.5003 54.1211 16.8015 54.644 16.0359L53.3463 15.1497ZM51.5703 16.8511C50.778 17.3996 49.7938 17.9289 48.6086 18.4345L49.2253 19.8799C50.4816 19.3439 51.5645 18.7664 52.4648 18.1431L51.5703 16.8511ZM48.6134 18.4325C47.4498 18.92 46.1275 19.3562 44.6435 19.7392L45.0362 21.2608C46.5795 20.8625 47.9753 20.4036 49.2206 19.8819L48.6134 18.4325ZM44.0648 20.6292C44.1375 21.0654 44.2471 21.4865 44.3944 21.8916L45.8712 21.3545C45.7581 21.0434 45.6724 20.7158 45.6149 20.3708L44.0648 20.6292ZM44.3986 21.9028C44.5264 22.2383 44.646 22.5652 44.7574 22.8836L46.2406 22.3645C46.1242 22.0318 45.9997 21.6914 45.8671 21.3433L44.3986 21.9028ZM44.7695 22.9158C44.8871 23.2099 44.9818 23.5016 45.0542 23.7911L46.5787 23.41C46.4883 23.0486 46.3713 22.6892 46.2285 22.3322L44.7695 22.9158ZM45.0672 23.8372C45.1383 24.0624 45.1772 24.3155 45.1772 24.6016H46.7486C46.7486 24.1715 46.6899 23.7573 46.5656 23.364L45.0672 23.8372ZM45.1772 24.6016C45.1772 25.4806 44.9663 26.1586 44.5911 26.6839L45.8698 27.5973C46.4712 26.7554 46.7486 25.7408 46.7486 24.6016H45.1772ZM44.5911 26.6839C44.1532 27.297 43.6005 27.8594 42.9258 28.3692L43.8731 29.623C44.6632 29.026 45.3312 28.3514 45.8698 27.5973L44.5911 26.6839ZM42.9348 28.3625C42.2263 28.8821 41.4517 29.3882 40.6101 29.8804L41.4035 31.2368C42.2873 30.7199 43.1077 30.1843 43.8641 29.6297L42.9348 28.3625ZM40.6045 29.8837C39.7126 30.4154 38.8807 31.0329 38.1095 31.7356L39.1678 32.8972C39.8615 32.2652 40.6084 31.7109 41.4092 31.2335L40.6045 29.8837ZM38.1167 31.7292C37.3089 32.4472 36.6415 33.3132 36.1123 34.3186L37.5029 35.0505C37.9503 34.2005 38.5036 33.4877 39.1607 32.9037L38.1167 31.7292ZM36.115 34.3135C35.5491 35.37 35.2895 36.6461 35.2895 38.1025H36.8609C36.8609 36.8246 37.0896 35.8221 37.5002 35.0556L36.115 34.3135ZM35.2895 38.1025C35.2895 39.2718 35.5023 40.3304 35.9555 41.2558L37.3668 40.5645C37.0387 39.8948 36.8609 39.0817 36.8609 38.1025H35.2895ZM35.9612 41.2672C36.4119 42.1504 36.9958 42.9024 37.7161 43.5119L38.7312 42.3123C38.1819 41.8476 37.7242 41.2649 37.361 40.5531L35.9612 41.2672ZM37.7161 43.5119C38.4237 44.1106 39.2093 44.5592 40.07 44.8522L40.5764 43.3646C39.9072 43.1368 39.2931 42.7878 38.7312 42.3123L37.7161 43.5119ZM40.0748 44.8538C40.9263 45.1376 41.7671 45.2847 42.5938 45.2847V43.7133C41.9556 43.7133 41.2827 43.6 40.5717 43.363L40.0748 44.8538ZM42.5938 45.2847C43.1078 45.2847 43.6594 45.2591 44.2478 45.2086L44.1136 43.6429C43.5626 43.6902 43.0562 43.7133 42.5938 43.7133V45.2847ZM44.2674 45.2067C44.9235 45.1338 45.6315 44.9633 46.3873 44.7056L45.8803 43.2182C45.2038 43.4488 44.6097 43.5876 44.0939 43.6449L44.2674 45.2067ZM46.4023 44.7003C47.1741 44.4197 48.007 44.0142 48.8986 43.4927L48.1053 42.1362C47.2716 42.6238 46.5257 42.9833 45.8653 43.2235L46.4023 44.7003ZM48.8986 43.4927C49.8161 42.9561 50.8005 42.2236 51.8507 41.3067L50.8173 40.123C49.8167 40.9964 48.9131 41.6637 48.1053 42.1362L48.8986 43.4927ZM50.7242 41.2103L51.3589 41.9916L52.5786 41.0006L51.9438 40.2194L50.7242 41.2103ZM51.464 40.8939C50.3778 41.8044 49.3829 42.5375 48.4782 43.099L49.3069 44.4342C50.2903 43.8238 51.3461 43.0432 52.4735 42.0982L51.464 40.8939ZM48.4866 43.0939C47.5758 43.6435 46.7155 44.0685 45.9052 44.3743L46.46 45.8445C47.375 45.4992 48.3213 45.029 49.2985 44.4393L48.4866 43.0939ZM45.9006 44.376C45.1043 44.6823 44.3323 44.8856 43.5834 44.9904L43.8013 46.5467C44.6801 46.4237 45.5682 46.1875 46.4647 45.8427L45.9006 44.376ZM43.5813 44.9907C42.8216 45.0993 42.045 45.1537 41.251 45.1537V46.7252C42.1171 46.7252 42.9681 46.6657 43.8035 46.5464L43.5813 44.9907ZM41.251 45.1537C40.1489 45.1537 39.1179 45.0084 38.1543 44.7224L37.7071 46.2288C38.8268 46.5612 40.0093 46.7252 41.251 46.7252V45.1537ZM38.1575 44.7233C37.2168 44.4396 36.4115 44.0267 35.7311 43.491L34.7591 44.7258C35.6086 45.3945 36.5938 45.8931 37.7038 46.2278L38.1575 44.7233ZM35.7311 43.491C35.0609 42.9634 34.5327 42.3082 34.1438 41.5161L32.7332 42.2085C33.2232 43.2067 33.8994 44.0489 34.7591 44.7258L35.7311 43.491ZM34.1387 41.5058C33.7478 40.7381 33.5406 39.8303 33.5406 38.7617H31.9692C31.9692 40.0369 32.2177 41.1961 32.7383 42.2188L34.1387 41.5058ZM33.5406 38.7617C33.5406 37.5297 33.7806 36.5062 34.2294 35.6647L32.8429 34.9252C32.25 36.0367 31.9692 37.3245 31.9692 38.7617H33.5406ZM34.2342 35.6556C34.6996 34.7547 35.281 33.9814 35.9774 33.3294L34.9035 32.1823C34.0699 32.9626 33.3818 33.882 32.8381 34.9343L34.2342 35.6556ZM35.9838 33.3234C36.7113 32.6268 37.4916 32.0167 38.3249 31.492L37.4876 30.1623C36.5631 30.7444 35.6995 31.4201 34.8971 32.1883L35.9838 33.3234ZM38.3194 31.4955C39.2173 30.9404 40.0506 30.4175 40.8192 29.9269L39.9737 28.6024C39.2124 29.0883 38.3856 29.6071 37.4931 30.1588L38.3194 31.4955ZM40.8291 29.9205C41.6232 29.3968 42.2989 28.8706 42.8472 28.34L41.7544 27.2108C41.2936 27.6567 40.6997 28.1234 39.9639 28.6088L40.8291 29.9205ZM42.8382 28.3486C43.4907 27.7369 43.8677 26.985 43.8677 26.1152H42.2963C42.2963 26.4824 42.1526 26.8374 41.7634 27.2022L42.8382 28.3486ZM43.8677 26.1152C43.8677 25.7749 43.7949 25.4367 43.6712 25.1069L42.1999 25.6587C42.2715 25.8497 42.2963 25.9998 42.2963 26.1152H43.8677ZM43.6893 25.1611C43.6059 24.8775 43.5065 24.5545 43.3913 24.1924L41.8939 24.6689C42.0065 25.023 42.1024 25.3347 42.1818 25.6045L43.6893 25.1611ZM43.3913 24.1924C43.2866 23.8635 43.187 23.4818 43.0935 23.0453L41.5569 23.3746C41.6587 23.8495 41.7707 24.2817 41.8939 24.6689L43.3913 24.1924ZM43.0987 23.0718C43.0274 22.6729 42.9888 22.1919 42.9888 21.623H41.4174C41.4174 22.2586 41.4602 22.8356 41.5517 23.3481L43.0987 23.0718ZM42.9888 21.623C42.9888 21.6229 42.9888 21.6227 42.9888 21.6226C42.9888 21.6224 42.9888 21.6223 42.9888 21.6221C42.9888 21.6219 42.9888 21.6218 42.9888 21.6216C42.9888 21.6215 42.9888 21.6213 42.9888 21.6211C42.9888 21.621 42.9888 21.6208 42.9888 21.6207C42.9888 21.6205 42.9888 21.6203 42.9888 21.6202C42.9888 21.62 42.9888 21.6199 42.9888 21.6197C42.9888 21.6196 42.9888 21.6194 42.9888 21.6192C42.9888 21.6191 42.9888 21.6189 42.9888 21.6188C42.9888 21.6186 42.9888 21.6184 42.9888 21.6183C42.9888 21.6181 42.9888 21.618 42.9888 21.6178C42.9888 21.6176 42.9888 21.6175 42.9888 21.6173C42.9888 21.6172 42.9888 21.617 42.9888 21.6168C42.9888 21.6167 42.9888 21.6165 42.9888 21.6164C42.9888 21.6162 42.9888 21.6161 42.9888 21.6159C42.9888 21.6157 42.9888 21.6156 42.9888 21.6154C42.9888 21.6153 42.9888 21.6151 42.9888 21.6149C42.9888 21.6148 42.9888 21.6146 42.9888 21.6145C42.9888 21.6143 42.9888 21.6141 42.9888 21.614C42.9888 21.6138 42.9888 21.6137 42.9888 21.6135C42.9888 21.6134 42.9888 21.6132 42.9888 21.613C42.9888 21.6129 42.9888 21.6127 42.9888 21.6126C42.9888 21.6124 42.9888 21.6122 42.9888 21.6121C42.9888 21.6119 42.9888 21.6118 42.9888 21.6116C42.9888 21.6114 42.9888 21.6113 42.9888 21.6111C42.9888 21.611 42.9888 21.6108 42.9888 21.6106C42.9888 21.6105 42.9888 21.6103 42.9888 21.6102C42.9888 21.61 42.9888 21.6099 42.9888 21.6097C42.9888 21.6095 42.9888 21.6094 42.9888 21.6092C42.9888 21.6091 42.9888 21.6089 42.9888 21.6087C42.9888 21.6086 42.9888 21.6084 42.9888 21.6083C42.9888 21.6081 42.9888 21.6079 42.9888 21.6078C42.9888 21.6076 42.9888 21.6075 42.9888 21.6073C42.9888 21.6072 42.9888 21.607 42.9888 21.6068C42.9888 21.6067 42.9888 21.6065 42.9888 21.6064C42.9888 21.6062 42.9888 21.606 42.9888 21.6059C42.9888 21.6057 42.9888 21.6056 42.9888 21.6054C42.9888 21.6052 42.9888 21.6051 42.9888 21.6049C42.9888 21.6048 42.9888 21.6046 42.9888 21.6045C42.9888 21.6043 42.9888 21.6041 42.9888 21.604C42.9888 21.6038 42.9888 21.6037 42.9888 21.6035C42.9888 21.6033 42.9888 21.6032 42.9888 21.603C42.9888 21.6029 42.9888 21.6027 42.9888 21.6025C42.9888 21.6024 42.9888 21.6022 42.9888 21.6021C42.9888 21.6019 42.9888 21.6017 42.9888 21.6016C42.9888 21.6014 42.9888 21.6013 42.9888 21.6011C42.9888 21.601 42.9888 21.6008 42.9888 21.6006C42.9888 21.6005 42.9888 21.6003 42.9888 21.6002C42.9888 21.6 42.9888 21.5998 42.9888 21.5997C42.9888 21.5995 42.9888 21.5994 42.9888 21.5992C42.9888 21.599 42.9888 21.5989 42.9888 21.5987C42.9888 21.5986 42.9888 21.5984 42.9888 21.5983C42.9888 21.5981 42.9888 21.5979 42.9888 21.5978C42.9888 21.5976 42.9888 21.5975 42.9888 21.5973C42.9888 21.5971 42.9888 21.597 42.9888 21.5968C42.9888 21.5967 42.9888 21.5965 42.9888 21.5963C42.9888 21.5962 42.9888 21.596 42.9888 21.5959C42.9888 21.5957 42.9888 21.5955 42.9888 21.5954C42.9888 21.5952 42.9888 21.5951 42.9888 21.5949C42.9888 21.5948 42.9888 21.5946 42.9888 21.5944C42.9888 21.5943 42.9888 21.5941 42.9888 21.594C42.9888 21.5938 42.9888 21.5936 42.9888 21.5935C42.9888 21.5933 42.9888 21.5932 42.9888 21.593C42.9888 21.5928 42.9888 21.5927 42.9888 21.5925C42.9888 21.5924 42.9888 21.5922 42.9888 21.5921C42.9888 21.5919 42.9888 21.5917 42.9888 21.5916C42.9888 21.5914 42.9888 21.5913 42.9888 21.5911C42.9888 21.5909 42.9888 21.5908 42.9888 21.5906C42.9888 21.5905 42.9888 21.5903 42.9888 21.5901C42.9888 21.59 42.9888 21.5898 42.9888 21.5897C42.9888 21.5895 42.9888 21.5893 42.9888 21.5892C42.9888 21.589 42.9888 21.5889 42.9888 21.5887C42.9888 21.5886 42.9888 21.5884 42.9888 21.5882C42.9888 21.5881 42.9888 21.5879 42.9888 21.5878C42.9888 21.5876 42.9888 21.5874 42.9888 21.5873C42.9888 21.5871 42.9888 21.587 42.9888 21.5868C42.9888 21.5866 42.9888 21.5865 42.9888 21.5863C42.9888 21.5862 42.9888 21.586 42.9888 21.5859C42.9888 21.5857 42.9888 21.5855 42.9888 21.5854C42.9888 21.5852 42.9888 21.5851 42.9888 21.5849C42.9888 21.5847 42.9888 21.5846 42.9888 21.5844C42.9888 21.5843 42.9888 21.5841 42.9888 21.5839C42.9888 21.5838 42.9888 21.5836 42.9888 21.5835C42.9888 21.5833 42.9888 21.5832 42.9888 21.583C42.9888 21.5828 42.9888 21.5827 42.9888 21.5825C42.9888 21.5824 42.9888 21.5822 42.9888 21.582C42.9888 21.5819 42.9888 21.5817 42.9888 21.5816C42.9888 21.5814 42.9888 21.5812 42.9888 21.5811C42.9888 21.5809 42.9888 21.5808 42.9888 21.5806C42.9888 21.5805 42.9888 21.5803 42.9888 21.5801C42.9888 21.58 42.9888 21.5798 42.9888 21.5797C42.9888 21.5795 42.9888 21.5793 42.9888 21.5792C42.9888 21.579 42.9888 21.5789 42.9888 21.5787C42.9888 21.5785 42.9888 21.5784 42.9888 21.5782C42.9888 21.5781 42.9888 21.5779 42.9888 21.5777C42.9888 21.5776 42.9888 21.5774 42.9888 21.5773C42.9888 21.5771 42.9888 21.577 42.9888 21.5768C42.9888 21.5766 42.9888 21.5765 42.9888 21.5763C42.9888 21.5762 42.9888 21.576 42.9888 21.5758C42.9888 21.5757 42.9888 21.5755 42.9888 21.5754C42.9888 21.5752 42.9888 21.575 42.9888 21.5749C42.9888 21.5747 42.9888 21.5746 42.9888 21.5744C42.9888 21.5743 42.9888 21.5741 42.9888 21.5739C42.9888 21.5738 42.9888 21.5736 42.9888 21.5735C42.9888 21.5733 42.9888 21.5731 42.9888 21.573C42.9888 21.5728 42.9888 21.5727 42.9888 21.5725C42.9888 21.5723 42.9888 21.5722 42.9888 21.572C42.9888 21.5719 42.9888 21.5717 42.9888 21.5715C42.9888 21.5714 42.9888 21.5712 42.9888 21.5711C42.9888 21.5709 42.9888 21.5708 42.9888 21.5706C42.9888 21.5704 42.9888 21.5703 42.9888 21.5701C42.9888 21.57 42.9888 21.5698 42.9888 21.5696C42.9888 21.5695 42.9888 21.5693 42.9888 21.5692C42.9888 21.569 42.9888 21.5688 42.9888 21.5687C42.9888 21.5685 42.9888 21.5684 42.9888 21.5682C42.9888 21.5681 42.9888 21.5679 42.9888 21.5677C42.9888 21.5676 42.9888 21.5674 42.9888 21.5673C42.9888 21.5671 42.9888 21.5669 42.9888 21.5668C42.9888 21.5666 42.9888 21.5665 42.9888 21.5663C42.9888 21.5661 42.9888 21.566 42.9888 21.5658C42.9888 21.5657 42.9888 21.5655 42.9888 21.5653C42.9888 21.5652 42.9888 21.565 42.9888 21.5649C42.9888 21.5647 42.9888 21.5646 42.9888 21.5644C42.9888 21.5642 42.9888 21.5641 42.9888 21.5639C42.9888 21.5638 42.9888 21.5636 42.9888 21.5634C42.9888 21.5633 42.9888 21.5631 42.9888 21.563C42.9888 21.5628 42.9888 21.5626 42.9888 21.5625C42.9888 21.5623 42.9888 21.5622 42.9888 21.562C42.9888 21.5619 42.9888 21.5617 42.9888 21.5615C42.9888 21.5614 42.9888 21.5612 42.9888 21.5611C42.9888 21.5609 42.9888 21.5607 42.9888 21.5606C42.9888 21.5604 42.9888 21.5603 42.9888 21.5601C42.9888 21.5599 42.9888 21.5598 42.9888 21.5596C42.9888 21.5595 42.9888 21.5593 42.9888 21.5592C42.9888 21.559 42.9888 21.5588 42.9888 21.5587C42.9888 21.5585 42.9888 21.5584 42.9888 21.5582C42.9888 21.558 42.9888 21.5579 42.9888 21.5577C42.9888 21.5576 42.9888 21.5574 42.9888 21.5572C42.9888 21.5571 42.9888 21.5569 42.9888 21.5568C42.9888 21.5566 42.9888 21.5564 42.9888 21.5563C42.9888 21.5561 42.9888 21.556 42.9888 21.5558C42.9888 21.5557 42.9888 21.5555 42.9888 21.5553C42.9888 21.5552 42.9888 21.555 42.9888 21.5549C42.9888 21.5547 42.9888 21.5545 42.9888 21.5544C42.9888 21.5542 42.9888 21.5541 42.9888 21.5539C42.9888 21.5537 42.9888 21.5536 42.9888 21.5534C42.9888 21.5533 42.9888 21.5531 42.9888 21.553C42.9888 21.5528 42.9888 21.5526 42.9888 21.5525C42.9888 21.5523 42.9888 21.5522 42.9888 21.552C42.9888 21.5518 42.9888 21.5517 42.9888 21.5515C42.9888 21.5514 42.9888 21.5512 42.9888 21.551C42.9888 21.5509 42.9888 21.5507 42.9888 21.5506C42.9888 21.5504 42.9888 21.5502 42.9888 21.5501C42.9888 21.5499 42.9888 21.5498 42.9888 21.5496C42.9888 21.5495 42.9888 21.5493 42.9888 21.5491C42.9888 21.549 42.9888 21.5488 42.9888 21.5487C42.9888 21.5485 42.9888 21.5483 42.9888 21.5482C42.9888 21.548 42.9888 21.5479 42.9888 21.5477C42.9888 21.5475 42.9888 21.5474 42.9888 21.5472C42.9888 21.5471 42.9888 21.5469 42.9888 21.5468C42.9888 21.5466 42.9888 21.5464 42.9888 21.5463C42.9888 21.5461 42.9888 21.546 42.9888 21.5458C42.9888 21.5456 42.9888 21.5455 42.9888 21.5453C42.9888 21.5452 42.9888 21.545 42.9888 21.5448C42.9888 21.5447 42.9888 21.5445 42.9888 21.5444C42.9888 21.5442 42.9888 21.5441 42.9888 21.5439C42.9888 21.5437 42.9888 21.5436 42.9888 21.5434C42.9888 21.5433 42.9888 21.5431 42.9888 21.5429C42.9888 21.5428 42.9888 21.5426 42.9888 21.5425C42.9888 21.5423 42.9888 21.5421 42.9888 21.542C42.9888 21.5418 42.9888 21.5417 42.9888 21.5415C42.9888 21.5413 42.9888 21.5412 42.9888 21.541C42.9888 21.5409 42.9888 21.5407 42.9888 21.5406C42.9888 21.5404 42.9888 21.5402 42.9888 21.5401C42.9888 21.5399 42.9888 21.5398 42.9888 21.5396C42.9888 21.5394 42.9888 21.5393 42.9888 21.5391C42.9888 21.539 42.9888 21.5388 42.9888 21.5386C42.9888 21.5385 42.9888 21.5383 42.9888 21.5382C42.9888 21.538 42.9888 21.5379 42.9888 21.5377C42.9888 21.5375 42.9888 21.5374 42.9888 21.5372C42.9888 21.5371 42.9888 21.5369 42.9888 21.5367C42.9888 21.5366 42.9888 21.5364 42.9888 21.5363C42.9888 21.5361 42.9888 21.5359 42.9888 21.5358C42.9888 21.5356 42.9888 21.5355 42.9888 21.5353C42.9888 21.5352 42.9888 21.535 42.9888 21.5348C42.9888 21.5347 42.9888 21.5345 42.9888 21.5344C42.9888 21.5342 42.9888 21.534 42.9888 21.5339C42.9888 21.5337 42.9888 21.5336 42.9888 21.5334C42.9888 21.5332 42.9888 21.5331 42.9888 21.5329C42.9888 21.5328 42.9888 21.5326 42.9888 21.5324C42.9888 21.5323 42.9888 21.5321 42.9888 21.532C42.9888 21.5318 42.9888 21.5317 42.9888 21.5315C42.9888 21.5313 42.9888 21.5312 42.9888 21.531C42.9888 21.5309 42.9888 21.5307 42.9888 21.5305C42.9888 21.5304 42.9888 21.5302 42.9888 21.5301C42.9888 21.5299 42.9888 21.5297 42.9888 21.5296C42.9888 21.5294 42.9888 21.5293 42.9888 21.5291C42.9888 21.529 42.9888 21.5288 42.9888 21.5286C42.9888 21.5285 42.9888 21.5283 42.9888 21.5282C42.9888 21.528 42.9888 21.5278 42.9888 21.5277C42.9888 21.5275 42.9888 21.5274 42.9888 21.5272C42.9888 21.527 42.9888 21.5269 42.9888 21.5267C42.9888 21.5266 42.9888 21.5264 42.9888 21.5262C42.9888 21.5261 42.9888 21.5259 42.9888 21.5258C42.9888 21.5256 42.9888 21.5255 42.9888 21.5253C42.9888 21.5251 42.9888 21.525 42.9888 21.5248C42.9888 21.5247 42.9888 21.5245 42.9888 21.5243C42.9888 21.5242 42.9888 21.524 42.9888 21.5239C42.9888 21.5237 42.9888 21.5235 42.9888 21.5234C42.9888 21.5232 42.9888 21.5231 42.9888 21.5229C42.9888 21.5228 42.9888 21.5226 42.9888 21.5224C42.9888 21.5223 42.9888 21.5221 42.9888 21.522C42.9888 21.5218 42.9888 21.5216 42.9888 21.5215C42.9888 21.5213 42.9888 21.5212 42.9888 21.521C42.9888 21.5208 42.9888 21.5207 42.9888 21.5205C42.9888 21.5204 42.9888 21.5202 42.9888 21.5201C42.9888 21.5199 42.9888 21.5197 42.9888 21.5196C42.9888 21.5194 42.9888 21.5193 42.9888 21.5191C42.9888 21.5189 42.9888 21.5188 42.9888 21.5186C42.9888 21.5185 42.9888 21.5183 42.9888 21.5181C42.9888 21.518 42.9888 21.5178 42.9888 21.5177C42.9888 21.5175 42.9888 21.5173 42.9888 21.5172C42.9888 21.517 42.9888 21.5169 42.9888 21.5167C42.9888 21.5166 42.9888 21.5164 42.9888 21.5162C42.9888 21.5161 42.9888 21.5159 42.9888 21.5158C42.9888 21.5156 42.9888 21.5154 42.9888 21.5153C42.9888 21.5151 42.9888 21.515 42.9888 21.5148C42.9888 21.5146 42.9888 21.5145 42.9888 21.5143C42.9888 21.5142 42.9888 21.514 42.9888 21.5139C42.9888 21.5137 42.9888 21.5135 42.9888 21.5134C42.9888 21.5132 42.9888 21.5131 42.9888 21.5129C42.9888 21.5127 42.9888 21.5126 42.9888 21.5124C42.9888 21.5123 42.9888 21.5121 42.9888 21.5119C42.9888 21.5118 42.9888 21.5116 42.9888 21.5115C42.9888 21.5113 42.9888 21.5111 42.9888 21.511C42.9888 21.5108 42.9888 21.5107 42.9888 21.5105C42.9888 21.5104 42.9888 21.5102 42.9888 21.51C42.9888 21.5099 42.9888 21.5097 42.9888 21.5096C42.9888 21.5094 42.9888 21.5092 42.9888 21.5091C42.9888 21.5089 42.9888 21.5088 42.9888 21.5086C42.9888 21.5084 42.9888 21.5083 42.9888 21.5081C42.9888 21.508 42.9888 21.5078 42.9888 21.5077C42.9888 21.5075 42.9888 21.5073 42.9888 21.5072C42.9888 21.507 42.9888 21.5069 42.9888 21.5067C42.9888 21.5065 42.9888 21.5064 42.9888 21.5062C42.9888 21.5061 42.9888 21.5059 42.9888 21.5057C42.9888 21.5056 42.9888 21.5054 42.9888 21.5053C42.9888 21.5051 42.9888 21.5049 42.9888 21.5048C42.9888 21.5046 42.9888 21.5045 42.9888 21.5043C42.9888 21.5042 42.9888 21.504 42.9888 21.5038C42.9888 21.5037 42.9888 21.5035 42.9888 21.5034C42.9888 21.5032 42.9888 21.503 42.9888 21.5029C42.9888 21.5027 42.9888 21.5026 42.9888 21.5024C42.9888 21.5022 42.9888 21.5021 42.9888 21.5019C42.9888 21.5018 42.9888 21.5016 42.9888 21.5015C42.9888 21.5013 42.9888 21.5011 42.9888 21.501C42.9888 21.5008 42.9888 21.5007 42.9888 21.5005C42.9888 21.5003 42.9888 21.5002 42.9888 21.5C42.9888 21.4999 42.9888 21.4997 42.9888 21.4995C42.9888 21.4994 42.9888 21.4992 42.9888 21.4991C42.9888 21.4989 42.9888 21.4988 42.9888 21.4986C42.9888 21.4984 42.9888 21.4983 42.9888 21.4981C42.9888 21.498 42.9888 21.4978 42.9888 21.4976C42.9888 21.4975 42.9888 21.4973 42.9888 21.4972C42.9888 21.497 42.9888 21.4968 42.9888 21.4967C42.9888 21.4965 42.9888 21.4964 42.9888 21.4962C42.9888 21.496 42.9888 21.4959 42.9888 21.4957C42.9888 21.4956 42.9888 21.4954 42.9888 21.4953C42.9888 21.4951 42.9888 21.4949 42.9888 21.4948C42.9888 21.4946 42.9888 21.4945 42.9888 21.4943C42.9888 21.4941 42.9888 21.494 42.9888 21.4938C42.9888 21.4937 42.9888 21.4935 42.9888 21.4933C42.9888 21.4932 42.9888 21.493 42.9888 21.4929C42.9888 21.4927 42.9888 21.4926 42.9888 21.4924C42.9888 21.4922 42.9888 21.4921 42.9888 21.4919C42.9888 21.4918 42.9888 21.4916 42.9888 21.4914C42.9888 21.4913 42.9888 21.4911 42.9888 21.491C42.9888 21.4908 42.9888 21.4906 42.9888 21.4905C42.9888 21.4903 42.9888 21.4902 42.9888 21.49C42.9888 21.4899 42.9888 21.4897 42.9888 21.4895C42.9888 21.4894 42.9888 21.4892 42.9888 21.4891C42.9888 21.4889 42.9888 21.4887 42.9888 21.4886C42.9888 21.4884 42.9888 21.4883 42.9888 21.4881C42.9888 21.4879 42.9888 21.4878 42.9888 21.4876C42.9888 21.4875 42.9888 21.4873 42.9888 21.4871C42.9888 21.487 42.9888 21.4868 42.9888 21.4867C42.9888 21.4865 42.9888 21.4864 42.9888 21.4862C42.9888 21.486 42.9888 21.4859 42.9888 21.4857C42.9888 21.4856 42.9888 21.4854 42.9888 21.4852C42.9888 21.4851 42.9888 21.4849 42.9888 21.4848C42.9888 21.4846 42.9888 21.4844 42.9888 21.4843C42.9888 21.4841 42.9888 21.484 42.9888 21.4838C42.9888 21.4837 42.9888 21.4835 42.9888 21.4833C42.9888 21.4832 42.9888 21.483 42.9888 21.4829C42.9888 21.4827 42.9888 21.4825 42.9888 21.4824C42.9888 21.4822 42.9888 21.4821 42.9888 21.4819C42.9888 21.4817 42.9888 21.4816 42.9888 21.4814C42.9888 21.4813 42.9888 21.4811 42.9888 21.4809C42.9888 21.4808 42.9888 21.4806 42.9888 21.4805C42.9888 21.4803 42.9888 21.4802 42.9888 21.48C42.9888 21.4798 42.9888 21.4797 42.9888 21.4795C42.9888 21.4794 42.9888 21.4792 42.9888 21.479C42.9888 21.4789 42.9888 21.4787 42.9888 21.4786C42.9888 21.4784 42.9888 21.4782 42.9888 21.4781C42.9888 21.4779 42.9888 21.4778 42.9888 21.4776C42.9888 21.4775 42.9888 21.4773 42.9888 21.4771C42.9888 21.477 42.9888 21.4768 42.9888 21.4767C42.9888 21.4765 42.9888 21.4763 42.9888 21.4762C42.9888 21.476 42.9888 21.4759 42.9888 21.4757C42.9888 21.4755 42.9888 21.4754 42.9888 21.4752C42.9888 21.4751 42.9888 21.4749 42.9888 21.4748C42.9888 21.4746 42.9888 21.4744 42.9888 21.4743C42.9888 21.4741 42.9888 21.474 42.9888 21.4738C42.9888 21.4736 42.9888 21.4735 42.9888 21.4733C42.9888 21.4732 42.9888 21.473 42.9888 21.4728C42.9888 21.4727 42.9888 21.4725 42.9888 21.4724C42.9888 21.4722 42.9888 21.472 42.9888 21.4719C42.9888 21.4717 42.9888 21.4716 42.9888 21.4714C42.9888 21.4713 42.9888 21.4711 42.9888 21.4709C42.9888 21.4708 42.9888 21.4706 42.9888 21.4705C42.9888 21.4703 42.9888 21.4701 42.9888 21.47C42.9888 21.4698 42.9888 21.4697 42.9888 21.4695C42.9888 21.4693 42.9888 21.4692 42.9888 21.469C42.9888 21.4689 42.9888 21.4687 42.9888 21.4686C42.9888 21.4684 42.9888 21.4682 42.9888 21.4681C42.9888 21.4679 42.9888 21.4678 42.9888 21.4676C42.9888 21.4674 42.9888 21.4673 42.9888 21.4671C42.9888 21.467 42.9888 21.4668 42.9888 21.4666C42.9888 21.4665 42.9888 21.4663 42.9888 21.4662C42.9888 21.466 42.9888 21.4658 42.9888 21.4657C42.9888 21.4655 42.9888 21.4654 42.9888 21.4652C42.9888 21.4651 42.9888 21.4649 42.9888 21.4647C42.9888 21.4646 42.9888 21.4644 42.9888 21.4643C42.9888 21.4641 42.9888 21.4639 42.9888 21.4638C42.9888 21.4636 42.9888 21.4635 42.9888 21.4633C42.9888 21.4631 42.9888 21.463 42.9888 21.4628C42.9888 21.4627 42.9888 21.4625 42.9888 21.4624C42.9888 21.4622 42.9888 21.462 42.9888 21.4619C42.9888 21.4617 42.9888 21.4616 42.9888 21.4614C42.9888 21.4612 42.9888 21.4611 42.9888 21.4609C42.9888 21.4608 42.9888 21.4606 42.9888 21.4604C42.9888 21.4603 42.9888 21.4601 42.9888 21.46C42.9888 21.4598 42.9888 21.4597 42.9888 21.4595C42.9888 21.4593 42.9888 21.4592 42.9888 21.459C42.9888 21.4589 42.9888 21.4587 42.9888 21.4585C42.9888 21.4584 42.9888 21.4582 42.9888 21.4581C42.9888 21.4579 42.9888 21.4577 42.9888 21.4576C42.9888 21.4574 42.9888 21.4573 42.9888 21.4571C42.9888 21.4569 42.9888 21.4568 42.9888 21.4566C42.9888 21.4565 42.9888 21.4563 42.9888 21.4562C42.9888 21.456 42.9888 21.4558 42.9888 21.4557C42.9888 21.4555 42.9888 21.4554 42.9888 21.4552C42.9888 21.455 42.9888 21.4549 42.9888 21.4547C42.9888 21.4546 42.9888 21.4544 42.9888 21.4542C42.9888 21.4541 42.9888 21.4539 42.9888 21.4538C42.9888 21.4536 42.9888 21.4535 42.9888 21.4533C42.9888 21.4531 42.9888 21.453 42.9888 21.4528C42.9888 21.4527 42.9888 21.4525 42.9888 21.4523C42.9888 21.4522 42.9888 21.452 42.9888 21.4519C42.9888 21.4517 42.9888 21.4515 42.9888 21.4514C42.9888 21.4512 42.9888 21.4511 42.9888 21.4509C42.9888 21.4508 42.9888 21.4506 42.9888 21.4504C42.9888 21.4503 42.9888 21.4501 42.9888 21.45C42.9888 21.4498 42.9888 21.4496 42.9888 21.4495C42.9888 21.4493 42.9888 21.4492 42.9888 21.449C42.9888 21.4488 42.9888 21.4487 42.9888 21.4485C42.9888 21.4484 42.9888 21.4482 42.9888 21.448C42.9888 21.4479 42.9888 21.4477 42.9888 21.4476C42.9888 21.4474 42.9888 21.4473 42.9888 21.4471C42.9888 21.4469 42.9888 21.4468 42.9888 21.4466C42.9888 21.4465 42.9888 21.4463 42.9888 21.4461C42.9888 21.446 42.9888 21.4458 42.9888 21.4457C42.9888 21.4455 42.9888 21.4453 42.9888 21.4452C42.9888 21.445 42.9888 21.4449 42.9888 21.4447C42.9888 21.4446 42.9888 21.4444 42.9888 21.4442C42.9888 21.4441 42.9888 21.4439 42.9888 21.4438C42.9888 21.4436 42.9888 21.4434 42.9888 21.4433C42.9888 21.4431 42.9888 21.443 42.9888 21.4428C42.9888 21.4426 42.9888 21.4425 42.9888 21.4423C42.9888 21.4422 42.9888 21.442 42.9888 21.4418C42.9888 21.4417 42.9888 21.4415 42.9888 21.4414C42.9888 21.4412 42.9888 21.4411 42.9888 21.4409C42.9888 21.4407 42.9888 21.4406 42.9888 21.4404C42.9888 21.4403 42.9888 21.4401 42.9888 21.4399C42.9888 21.4398 42.9888 21.4396 42.9888 21.4395C42.9888 21.4393 42.9888 21.4391 42.9888 21.439C42.9888 21.4388 42.9888 21.4387 42.9888 21.4385C42.9888 21.4384 42.9888 21.4382 42.9888 21.438C42.9888 21.4379 42.9888 21.4377 42.9888 21.4376C42.9888 21.4374 42.9888 21.4372 42.9888 21.4371C42.9888 21.4369 42.9888 21.4368 42.9888 21.4366C42.9888 21.4364 42.9888 21.4363 42.9888 21.4361C42.9888 21.436 42.9888 21.4358 42.9888 21.4356C42.9888 21.4355 42.9888 21.4353 42.9888 21.4352C42.9888 21.435 42.9888 21.4349 42.9888 21.4347C42.9888 21.4345 42.9888 21.4344 42.9888 21.4342C42.9888 21.4341 42.9888 21.4339 42.9888 21.4337C42.9888 21.4336 42.9888 21.4334 42.9888 21.4333C42.9888 21.4331 42.9888 21.4329 42.9888 21.4328C42.9888 21.4326 42.9888 21.4325 42.9888 21.4323C42.9888 21.4322 42.9888 21.432 42.9888 21.4318C42.9888 21.4317 42.9888 21.4315 42.9888 21.4314C42.9888 21.4312 42.9888 21.431 42.9888 21.4309C42.9888 21.4307 42.9888 21.4306 42.9888 21.4304C42.9888 21.4302 42.9888 21.4301 42.9888 21.4299C42.9888 21.4298 42.9888 21.4296 42.9888 21.4295C42.9888 21.4293 42.9888 21.4291 42.9888 21.429C42.9888 21.4288 42.9888 21.4287 42.9888 21.4285C42.9888 21.4283 42.9888 21.4282 42.9888 21.428C42.9888 21.4279 42.9888 21.4277 42.9888 21.4275C42.9888 21.4274 42.9888 21.4272 42.9888 21.4271C42.9888 21.4269 42.9888 21.4267 42.9888 21.4266C42.9888 21.4264 42.9888 21.4263 42.9888 21.4261C42.9888 21.426 42.9888 21.4258 42.9888 21.4256C42.9888 21.4255 42.9888 21.4253 42.9888 21.4252C42.9888 21.425 42.9888 21.4248 42.9888 21.4247C42.9888 21.4245 42.9888 21.4244 42.9888 21.4242C42.9888 21.424 42.9888 21.4239 42.9888 21.4237C42.9888 21.4236 42.9888 21.4234 42.9888 21.4233C42.9888 21.4231 42.9888 21.4229 42.9888 21.4228C42.9888 21.4226 42.9888 21.4225 42.9888 21.4223C42.9888 21.4221 42.9888 21.422 42.9888 21.4218C42.9888 21.4217 42.9888 21.4215 42.9888 21.4213C42.9888 21.4212 42.9888 21.421 42.9888 21.4209C42.9888 21.4207 42.9888 21.4205 42.9888 21.4204C42.9888 21.4202 42.9888 21.4201 42.9888 21.4199C42.9888 21.4198 42.9888 21.4196 42.9888 21.4194C42.9888 21.4193 42.9888 21.4191 42.9888 21.419C42.9888 21.4188 42.9888 21.4186 42.9888 21.4185C42.9888 21.4183 42.9888 21.4182 42.9888 21.418C42.9888 21.4178 42.9888 21.4177 42.9888 21.4175C42.9888 21.4174 42.9888 21.4172 42.9888 21.4171C42.9888 21.4169 42.9888 21.4167 42.9888 21.4166C42.9888 21.4164 42.9888 21.4163 42.9888 21.4161C42.9888 21.4159 42.9888 21.4158 42.9888 21.4156C42.9888 21.4155 42.9888 21.4153 42.9888 21.4151C42.9888 21.415 42.9888 21.4148 42.9888 21.4147C42.9888 21.4145 42.9888 21.4144 42.9888 21.4142C42.9888 21.414 42.9888 21.4139 42.9888 21.4137C42.9888 21.4136 42.9888 21.4134 42.9888 21.4132C42.9888 21.4131 42.9888 21.4129 42.9888 21.4128C42.9888 21.4126 42.9888 21.4124 42.9888 21.4123C42.9888 21.4121 42.9888 21.412 42.9888 21.4118C42.9888 21.4116 42.9888 21.4115 42.9888 21.4113C42.9888 21.4112 42.9888 21.411 42.9888 21.4109C42.9888 21.4107 42.9888 21.4105 42.9888 21.4104C42.9888 21.4102 42.9888 21.4101 42.9888 21.4099C42.9888 21.4097 42.9888 21.4096 42.9888 21.4094C42.9888 21.4093 42.9888 21.4091 42.9888 21.4089C42.9888 21.4088 42.9888 21.4086 42.9888 21.4085C42.9888 21.4083 42.9888 21.4082 42.9888 21.408C42.9888 21.4078 42.9888 21.4077 42.9888 21.4075C42.9888 21.4074 42.9888 21.4072 42.9888 21.407C42.9888 21.4069 42.9888 21.4067 42.9888 21.4066C42.9888 21.4064 42.9888 21.4062 42.9888 21.4061C42.9888 21.4059 42.9888 21.4058 42.9888 21.4056C42.9888 21.4055 42.9888 21.4053 42.9888 21.4051C42.9888 21.405 42.9888 21.4048 42.9888 21.4047C42.9888 21.4045 42.9888 21.4043 42.9888 21.4042C42.9888 21.404 42.9888 21.4039 42.9888 21.4037C42.9888 21.4035 42.9888 21.4034 42.9888 21.4032C42.9888 21.4031 42.9888 21.4029 42.9888 21.4027C42.9888 21.4026 42.9888 21.4024 42.9888 21.4023C42.9888 21.4021 42.9888 21.402 42.9888 21.4018C42.9888 21.4016 42.9888 21.4015 42.9888 21.4013C42.9888 21.4012 42.9888 21.401 42.9888 21.4008C42.9888 21.4007 42.9888 21.4005 42.9888 21.4004C42.9888 21.4002 42.9888 21.4 42.9888 21.3999C42.9888 21.3997 42.9888 21.3996 42.9888 21.3994C42.9888 21.3993 42.9888 21.3991 42.9888 21.3989C42.9888 21.3988 42.9888 21.3986 42.9888 21.3985C42.9888 21.3983 42.9888 21.3981 42.9888 21.398C42.9888 21.3978 42.9888 21.3977 42.9888 21.3975C42.9888 21.3973 42.9888 21.3972 42.9888 21.397C42.9888 21.3969 42.9888 21.3967 42.9888 21.3965C42.9888 21.3964 42.9888 21.3962 42.9888 21.3961C42.9888 21.3959 42.9888 21.3958 42.9888 21.3956C42.9888 21.3954 42.9888 21.3953 42.9888 21.3951C42.9888 21.395 42.9888 21.3948 42.9888 21.3946C42.9888 21.3945 42.9888 21.3943 42.9888 21.3942C42.9888 21.394 42.9888 21.3938 42.9888 21.3937C42.9888 21.3935 42.9888 21.3934 42.9888 21.3932C42.9888 21.3931 42.9888 21.3929 42.9888 21.3927C42.9888 21.3926 42.9888 21.3924 42.9888 21.3923C42.9888 21.3921 42.9888 21.3919 42.9888 21.3918C42.9888 21.3916 42.9888 21.3915 42.9888 21.3913C42.9888 21.3911 42.9888 21.391 42.9888 21.3908C42.9888 21.3907 42.9888 21.3905 42.9888 21.3904C42.9888 21.3902 42.9888 21.39 42.9888 21.3899C42.9888 21.3897 42.9888 21.3896 42.9888 21.3894C42.9888 21.3892 42.9888 21.3891 42.9888 21.3889C42.9888 21.3888 42.9888 21.3886 42.9888 21.3884C42.9888 21.3883 42.9888 21.3881 42.9888 21.388C42.9888 21.3878 42.9888 21.3876 42.9888 21.3875C42.9888 21.3873 42.9888 21.3872 42.9888 21.387C42.9888 21.3869 42.9888 21.3867 42.9888 21.3865C42.9888 21.3864 42.9888 21.3862 42.9888 21.3861C42.9888 21.3859 42.9888 21.3857 42.9888 21.3856C42.9888 21.3854 42.9888 21.3853 42.9888 21.3851C42.9888 21.3849 42.9888 21.3848 42.9888 21.3846C42.9888 21.3845 42.9888 21.3843 42.9888 21.3842C42.9888 21.384 42.9888 21.3838 42.9888 21.3837C42.9888 21.3835 42.9888 21.3834 42.9888 21.3832C42.9888 21.383 42.9888 21.3829 42.9888 21.3827C42.9888 21.3826 42.9888 21.3824 42.9888 21.3822C42.9888 21.3821 42.9888 21.3819 42.9888 21.3818C42.9888 21.3816 42.9888 21.3814 42.9888 21.3813C42.9888 21.3811 42.9888 21.381 42.9888 21.3808C42.9888 21.3807 42.9888 21.3805 42.9888 21.3803C42.9888 21.3802 42.9888 21.38 42.9888 21.3799C42.9888 21.3797 42.9888 21.3795 42.9888 21.3794C42.9888 21.3792 42.9888 21.3791 42.9888 21.3789H41.4174C41.4174 21.3791 41.4174 21.3792 41.4174 21.3794C41.4174 21.3795 41.4174 21.3797 41.4174 21.3799C41.4174 21.38 41.4174 21.3802 41.4174 21.3803C41.4174 21.3805 41.4174 21.3807 41.4174 21.3808C41.4174 21.381 41.4174 21.3811 41.4174 21.3813C41.4174 21.3814 41.4174 21.3816 41.4174 21.3818C41.4174 21.3819 41.4174 21.3821 41.4174 21.3822C41.4174 21.3824 41.4174 21.3826 41.4174 21.3827C41.4174 21.3829 41.4174 21.383 41.4174 21.3832C41.4174 21.3834 41.4174 21.3835 41.4174 21.3837C41.4174 21.3838 41.4174 21.384 41.4174 21.3842C41.4174 21.3843 41.4174 21.3845 41.4174 21.3846C41.4174 21.3848 41.4174 21.3849 41.4174 21.3851C41.4174 21.3853 41.4174 21.3854 41.4174 21.3856C41.4174 21.3857 41.4174 21.3859 41.4174 21.3861C41.4174 21.3862 41.4174 21.3864 41.4174 21.3865C41.4174 21.3867 41.4174 21.3869 41.4174 21.387C41.4174 21.3872 41.4174 21.3873 41.4174 21.3875C41.4174 21.3876 41.4174 21.3878 41.4174 21.388C41.4174 21.3881 41.4174 21.3883 41.4174 21.3884C41.4174 21.3886 41.4174 21.3888 41.4174 21.3889C41.4174 21.3891 41.4174 21.3892 41.4174 21.3894C41.4174 21.3896 41.4174 21.3897 41.4174 21.3899C41.4174 21.39 41.4174 21.3902 41.4174 21.3904C41.4174 21.3905 41.4174 21.3907 41.4174 21.3908C41.4174 21.391 41.4174 21.3911 41.4174 21.3913C41.4174 21.3915 41.4174 21.3916 41.4174 21.3918C41.4174 21.3919 41.4174 21.3921 41.4174 21.3923C41.4174 21.3924 41.4174 21.3926 41.4174 21.3927C41.4174 21.3929 41.4174 21.3931 41.4174 21.3932C41.4174 21.3934 41.4174 21.3935 41.4174 21.3937C41.4174 21.3938 41.4174 21.394 41.4174 21.3942C41.4174 21.3943 41.4174 21.3945 41.4174 21.3946C41.4174 21.3948 41.4174 21.395 41.4174 21.3951C41.4174 21.3953 41.4174 21.3954 41.4174 21.3956C41.4174 21.3958 41.4174 21.3959 41.4174 21.3961C41.4174 21.3962 41.4174 21.3964 41.4174 21.3965C41.4174 21.3967 41.4174 21.3969 41.4174 21.397C41.4174 21.3972 41.4174 21.3973 41.4174 21.3975C41.4174 21.3977 41.4174 21.3978 41.4174 21.398C41.4174 21.3981 41.4174 21.3983 41.4174 21.3985C41.4174 21.3986 41.4174 21.3988 41.4174 21.3989C41.4174 21.3991 41.4174 21.3993 41.4174 21.3994C41.4174 21.3996 41.4174 21.3997 41.4174 21.3999C41.4174 21.4 41.4174 21.4002 41.4174 21.4004C41.4174 21.4005 41.4174 21.4007 41.4174 21.4008C41.4174 21.401 41.4174 21.4012 41.4174 21.4013C41.4174 21.4015 41.4174 21.4016 41.4174 21.4018C41.4174 21.402 41.4174 21.4021 41.4174 21.4023C41.4174 21.4024 41.4174 21.4026 41.4174 21.4027C41.4174 21.4029 41.4174 21.4031 41.4174 21.4032C41.4174 21.4034 41.4174 21.4035 41.4174 21.4037C41.4174 21.4039 41.4174 21.404 41.4174 21.4042C41.4174 21.4043 41.4174 21.4045 41.4174 21.4047C41.4174 21.4048 41.4174 21.405 41.4174 21.4051C41.4174 21.4053 41.4174 21.4055 41.4174 21.4056C41.4174 21.4058 41.4174 21.4059 41.4174 21.4061C41.4174 21.4062 41.4174 21.4064 41.4174 21.4066C41.4174 21.4067 41.4174 21.4069 41.4174 21.407C41.4174 21.4072 41.4174 21.4074 41.4174 21.4075C41.4174 21.4077 41.4174 21.4078 41.4174 21.408C41.4174 21.4082 41.4174 21.4083 41.4174 21.4085C41.4174 21.4086 41.4174 21.4088 41.4174 21.4089C41.4174 21.4091 41.4174 21.4093 41.4174 21.4094C41.4174 21.4096 41.4174 21.4097 41.4174 21.4099C41.4174 21.4101 41.4174 21.4102 41.4174 21.4104C41.4174 21.4105 41.4174 21.4107 41.4174 21.4109C41.4174 21.411 41.4174 21.4112 41.4174 21.4113C41.4174 21.4115 41.4174 21.4116 41.4174 21.4118C41.4174 21.412 41.4174 21.4121 41.4174 21.4123C41.4174 21.4124 41.4174 21.4126 41.4174 21.4128C41.4174 21.4129 41.4174 21.4131 41.4174 21.4132C41.4174 21.4134 41.4174 21.4136 41.4174 21.4137C41.4174 21.4139 41.4174 21.414 41.4174 21.4142C41.4174 21.4144 41.4174 21.4145 41.4174 21.4147C41.4174 21.4148 41.4174 21.415 41.4174 21.4151C41.4174 21.4153 41.4174 21.4155 41.4174 21.4156C41.4174 21.4158 41.4174 21.4159 41.4174 21.4161C41.4174 21.4163 41.4174 21.4164 41.4174 21.4166C41.4174 21.4167 41.4174 21.4169 41.4174 21.4171C41.4174 21.4172 41.4174 21.4174 41.4174 21.4175C41.4174 21.4177 41.4174 21.4178 41.4174 21.418C41.4174 21.4182 41.4174 21.4183 41.4174 21.4185C41.4174 21.4186 41.4174 21.4188 41.4174 21.419C41.4174 21.4191 41.4174 21.4193 41.4174 21.4194C41.4174 21.4196 41.4174 21.4198 41.4174 21.4199C41.4174 21.4201 41.4174 21.4202 41.4174 21.4204C41.4174 21.4205 41.4174 21.4207 41.4174 21.4209C41.4174 21.421 41.4174 21.4212 41.4174 21.4213C41.4174 21.4215 41.4174 21.4217 41.4174 21.4218C41.4174 21.422 41.4174 21.4221 41.4174 21.4223C41.4174 21.4225 41.4174 21.4226 41.4174 21.4228C41.4174 21.4229 41.4174 21.4231 41.4174 21.4233C41.4174 21.4234 41.4174 21.4236 41.4174 21.4237C41.4174 21.4239 41.4174 21.424 41.4174 21.4242C41.4174 21.4244 41.4174 21.4245 41.4174 21.4247C41.4174 21.4248 41.4174 21.425 41.4174 21.4252C41.4174 21.4253 41.4174 21.4255 41.4174 21.4256C41.4174 21.4258 41.4174 21.426 41.4174 21.4261C41.4174 21.4263 41.4174 21.4264 41.4174 21.4266C41.4174 21.4267 41.4174 21.4269 41.4174 21.4271C41.4174 21.4272 41.4174 21.4274 41.4174 21.4275C41.4174 21.4277 41.4174 21.4279 41.4174 21.428C41.4174 21.4282 41.4174 21.4283 41.4174 21.4285C41.4174 21.4287 41.4174 21.4288 41.4174 21.429C41.4174 21.4291 41.4174 21.4293 41.4174 21.4295C41.4174 21.4296 41.4174 21.4298 41.4174 21.4299C41.4174 21.4301 41.4174 21.4302 41.4174 21.4304C41.4174 21.4306 41.4174 21.4307 41.4174 21.4309C41.4174 21.431 41.4174 21.4312 41.4174 21.4314C41.4174 21.4315 41.4174 21.4317 41.4174 21.4318C41.4174 21.432 41.4174 21.4322 41.4174 21.4323C41.4174 21.4325 41.4174 21.4326 41.4174 21.4328C41.4174 21.4329 41.4174 21.4331 41.4174 21.4333C41.4174 21.4334 41.4174 21.4336 41.4174 21.4337C41.4174 21.4339 41.4174 21.4341 41.4174 21.4342C41.4174 21.4344 41.4174 21.4345 41.4174 21.4347C41.4174 21.4349 41.4174 21.435 41.4174 21.4352C41.4174 21.4353 41.4174 21.4355 41.4174 21.4356C41.4174 21.4358 41.4174 21.436 41.4174 21.4361C41.4174 21.4363 41.4174 21.4364 41.4174 21.4366C41.4174 21.4368 41.4174 21.4369 41.4174 21.4371C41.4174 21.4372 41.4174 21.4374 41.4174 21.4376C41.4174 21.4377 41.4174 21.4379 41.4174 21.438C41.4174 21.4382 41.4174 21.4384 41.4174 21.4385C41.4174 21.4387 41.4174 21.4388 41.4174 21.439C41.4174 21.4391 41.4174 21.4393 41.4174 21.4395C41.4174 21.4396 41.4174 21.4398 41.4174 21.4399C41.4174 21.4401 41.4174 21.4403 41.4174 21.4404C41.4174 21.4406 41.4174 21.4407 41.4174 21.4409C41.4174 21.4411 41.4174 21.4412 41.4174 21.4414C41.4174 21.4415 41.4174 21.4417 41.4174 21.4418C41.4174 21.442 41.4174 21.4422 41.4174 21.4423C41.4174 21.4425 41.4174 21.4426 41.4174 21.4428C41.4174 21.443 41.4174 21.4431 41.4174 21.4433C41.4174 21.4434 41.4174 21.4436 41.4174 21.4438C41.4174 21.4439 41.4174 21.4441 41.4174 21.4442C41.4174 21.4444 41.4174 21.4446 41.4174 21.4447C41.4174 21.4449 41.4174 21.445 41.4174 21.4452C41.4174 21.4453 41.4174 21.4455 41.4174 21.4457C41.4174 21.4458 41.4174 21.446 41.4174 21.4461C41.4174 21.4463 41.4174 21.4465 41.4174 21.4466C41.4174 21.4468 41.4174 21.4469 41.4174 21.4471C41.4174 21.4473 41.4174 21.4474 41.4174 21.4476C41.4174 21.4477 41.4174 21.4479 41.4174 21.448C41.4174 21.4482 41.4174 21.4484 41.4174 21.4485C41.4174 21.4487 41.4174 21.4488 41.4174 21.449C41.4174 21.4492 41.4174 21.4493 41.4174 21.4495C41.4174 21.4496 41.4174 21.4498 41.4174 21.45C41.4174 21.4501 41.4174 21.4503 41.4174 21.4504C41.4174 21.4506 41.4174 21.4508 41.4174 21.4509C41.4174 21.4511 41.4174 21.4512 41.4174 21.4514C41.4174 21.4515 41.4174 21.4517 41.4174 21.4519C41.4174 21.452 41.4174 21.4522 41.4174 21.4523C41.4174 21.4525 41.4174 21.4527 41.4174 21.4528C41.4174 21.453 41.4174 21.4531 41.4174 21.4533C41.4174 21.4535 41.4174 21.4536 41.4174 21.4538C41.4174 21.4539 41.4174 21.4541 41.4174 21.4542C41.4174 21.4544 41.4174 21.4546 41.4174 21.4547C41.4174 21.4549 41.4174 21.455 41.4174 21.4552C41.4174 21.4554 41.4174 21.4555 41.4174 21.4557C41.4174 21.4558 41.4174 21.456 41.4174 21.4562C41.4174 21.4563 41.4174 21.4565 41.4174 21.4566C41.4174 21.4568 41.4174 21.4569 41.4174 21.4571C41.4174 21.4573 41.4174 21.4574 41.4174 21.4576C41.4174 21.4577 41.4174 21.4579 41.4174 21.4581C41.4174 21.4582 41.4174 21.4584 41.4174 21.4585C41.4174 21.4587 41.4174 21.4589 41.4174 21.459C41.4174 21.4592 41.4174 21.4593 41.4174 21.4595C41.4174 21.4597 41.4174 21.4598 41.4174 21.46C41.4174 21.4601 41.4174 21.4603 41.4174 21.4604C41.4174 21.4606 41.4174 21.4608 41.4174 21.4609C41.4174 21.4611 41.4174 21.4612 41.4174 21.4614C41.4174 21.4616 41.4174 21.4617 41.4174 21.4619C41.4174 21.462 41.4174 21.4622 41.4174 21.4624C41.4174 21.4625 41.4174 21.4627 41.4174 21.4628C41.4174 21.463 41.4174 21.4631 41.4174 21.4633C41.4174 21.4635 41.4174 21.4636 41.4174 21.4638C41.4174 21.4639 41.4174 21.4641 41.4174 21.4643C41.4174 21.4644 41.4174 21.4646 41.4174 21.4647C41.4174 21.4649 41.4174 21.4651 41.4174 21.4652C41.4174 21.4654 41.4174 21.4655 41.4174 21.4657C41.4174 21.4658 41.4174 21.466 41.4174 21.4662C41.4174 21.4663 41.4174 21.4665 41.4174 21.4666C41.4174 21.4668 41.4174 21.467 41.4174 21.4671C41.4174 21.4673 41.4174 21.4674 41.4174 21.4676C41.4174 21.4678 41.4174 21.4679 41.4174 21.4681C41.4174 21.4682 41.4174 21.4684 41.4174 21.4686C41.4174 21.4687 41.4174 21.4689 41.4174 21.469C41.4174 21.4692 41.4174 21.4693 41.4174 21.4695C41.4174 21.4697 41.4174 21.4698 41.4174 21.47C41.4174 21.4701 41.4174 21.4703 41.4174 21.4705C41.4174 21.4706 41.4174 21.4708 41.4174 21.4709C41.4174 21.4711 41.4174 21.4713 41.4174 21.4714C41.4174 21.4716 41.4174 21.4717 41.4174 21.4719C41.4174 21.472 41.4174 21.4722 41.4174 21.4724C41.4174 21.4725 41.4174 21.4727 41.4174 21.4728C41.4174 21.473 41.4174 21.4732 41.4174 21.4733C41.4174 21.4735 41.4174 21.4736 41.4174 21.4738C41.4174 21.474 41.4174 21.4741 41.4174 21.4743C41.4174 21.4744 41.4174 21.4746 41.4174 21.4748C41.4174 21.4749 41.4174 21.4751 41.4174 21.4752C41.4174 21.4754 41.4174 21.4755 41.4174 21.4757C41.4174 21.4759 41.4174 21.476 41.4174 21.4762C41.4174 21.4763 41.4174 21.4765 41.4174 21.4767C41.4174 21.4768 41.4174 21.477 41.4174 21.4771C41.4174 21.4773 41.4174 21.4775 41.4174 21.4776C41.4174 21.4778 41.4174 21.4779 41.4174 21.4781C41.4174 21.4782 41.4174 21.4784 41.4174 21.4786C41.4174 21.4787 41.4174 21.4789 41.4174 21.479C41.4174 21.4792 41.4174 21.4794 41.4174 21.4795C41.4174 21.4797 41.4174 21.4798 41.4174 21.48C41.4174 21.4802 41.4174 21.4803 41.4174 21.4805C41.4174 21.4806 41.4174 21.4808 41.4174 21.4809C41.4174 21.4811 41.4174 21.4813 41.4174 21.4814C41.4174 21.4816 41.4174 21.4817 41.4174 21.4819C41.4174 21.4821 41.4174 21.4822 41.4174 21.4824C41.4174 21.4825 41.4174 21.4827 41.4174 21.4829C41.4174 21.483 41.4174 21.4832 41.4174 21.4833C41.4174 21.4835 41.4174 21.4837 41.4174 21.4838C41.4174 21.484 41.4174 21.4841 41.4174 21.4843C41.4174 21.4844 41.4174 21.4846 41.4174 21.4848C41.4174 21.4849 41.4174 21.4851 41.4174 21.4852C41.4174 21.4854 41.4174 21.4856 41.4174 21.4857C41.4174 21.4859 41.4174 21.486 41.4174 21.4862C41.4174 21.4864 41.4174 21.4865 41.4174 21.4867C41.4174 21.4868 41.4174 21.487 41.4174 21.4871C41.4174 21.4873 41.4174 21.4875 41.4174 21.4876C41.4174 21.4878 41.4174 21.4879 41.4174 21.4881C41.4174 21.4883 41.4174 21.4884 41.4174 21.4886C41.4174 21.4887 41.4174 21.4889 41.4174 21.4891C41.4174 21.4892 41.4174 21.4894 41.4174 21.4895C41.4174 21.4897 41.4174 21.4899 41.4174 21.49C41.4174 21.4902 41.4174 21.4903 41.4174 21.4905C41.4174 21.4906 41.4174 21.4908 41.4174 21.491C41.4174 21.4911 41.4174 21.4913 41.4174 21.4914C41.4174 21.4916 41.4174 21.4918 41.4174 21.4919C41.4174 21.4921 41.4174 21.4922 41.4174 21.4924C41.4174 21.4926 41.4174 21.4927 41.4174 21.4929C41.4174 21.493 41.4174 21.4932 41.4174 21.4933C41.4174 21.4935 41.4174 21.4937 41.4174 21.4938C41.4174 21.494 41.4174 21.4941 41.4174 21.4943C41.4174 21.4945 41.4174 21.4946 41.4174 21.4948C41.4174 21.4949 41.4174 21.4951 41.4174 21.4953C41.4174 21.4954 41.4174 21.4956 41.4174 21.4957C41.4174 21.4959 41.4174 21.496 41.4174 21.4962C41.4174 21.4964 41.4174 21.4965 41.4174 21.4967C41.4174 21.4968 41.4174 21.497 41.4174 21.4972C41.4174 21.4973 41.4174 21.4975 41.4174 21.4976C41.4174 21.4978 41.4174 21.498 41.4174 21.4981C41.4174 21.4983 41.4174 21.4984 41.4174 21.4986C41.4174 21.4988 41.4174 21.4989 41.4174 21.4991C41.4174 21.4992 41.4174 21.4994 41.4174 21.4995C41.4174 21.4997 41.4174 21.4999 41.4174 21.5C41.4174 21.5002 41.4174 21.5003 41.4174 21.5005C41.4174 21.5007 41.4174 21.5008 41.4174 21.501C41.4174 21.5011 41.4174 21.5013 41.4174 21.5015C41.4174 21.5016 41.4174 21.5018 41.4174 21.5019C41.4174 21.5021 41.4174 21.5022 41.4174 21.5024C41.4174 21.5026 41.4174 21.5027 41.4174 21.5029C41.4174 21.503 41.4174 21.5032 41.4174 21.5034C41.4174 21.5035 41.4174 21.5037 41.4174 21.5038C41.4174 21.504 41.4174 21.5042 41.4174 21.5043C41.4174 21.5045 41.4174 21.5046 41.4174 21.5048C41.4174 21.5049 41.4174 21.5051 41.4174 21.5053C41.4174 21.5054 41.4174 21.5056 41.4174 21.5057C41.4174 21.5059 41.4174 21.5061 41.4174 21.5062C41.4174 21.5064 41.4174 21.5065 41.4174 21.5067C41.4174 21.5069 41.4174 21.507 41.4174 21.5072C41.4174 21.5073 41.4174 21.5075 41.4174 21.5077C41.4174 21.5078 41.4174 21.508 41.4174 21.5081C41.4174 21.5083 41.4174 21.5084 41.4174 21.5086C41.4174 21.5088 41.4174 21.5089 41.4174 21.5091C41.4174 21.5092 41.4174 21.5094 41.4174 21.5096C41.4174 21.5097 41.4174 21.5099 41.4174 21.51C41.4174 21.5102 41.4174 21.5104 41.4174 21.5105C41.4174 21.5107 41.4174 21.5108 41.4174 21.511C41.4174 21.5111 41.4174 21.5113 41.4174 21.5115C41.4174 21.5116 41.4174 21.5118 41.4174 21.5119C41.4174 21.5121 41.4174 21.5123 41.4174 21.5124C41.4174 21.5126 41.4174 21.5127 41.4174 21.5129C41.4174 21.5131 41.4174 21.5132 41.4174 21.5134C41.4174 21.5135 41.4174 21.5137 41.4174 21.5139C41.4174 21.514 41.4174 21.5142 41.4174 21.5143C41.4174 21.5145 41.4174 21.5146 41.4174 21.5148C41.4174 21.515 41.4174 21.5151 41.4174 21.5153C41.4174 21.5154 41.4174 21.5156 41.4174 21.5158C41.4174 21.5159 41.4174 21.5161 41.4174 21.5162C41.4174 21.5164 41.4174 21.5166 41.4174 21.5167C41.4174 21.5169 41.4174 21.517 41.4174 21.5172C41.4174 21.5173 41.4174 21.5175 41.4174 21.5177C41.4174 21.5178 41.4174 21.518 41.4174 21.5181C41.4174 21.5183 41.4174 21.5185 41.4174 21.5186C41.4174 21.5188 41.4174 21.5189 41.4174 21.5191C41.4174 21.5193 41.4174 21.5194 41.4174 21.5196C41.4174 21.5197 41.4174 21.5199 41.4174 21.5201C41.4174 21.5202 41.4174 21.5204 41.4174 21.5205C41.4174 21.5207 41.4174 21.5208 41.4174 21.521C41.4174 21.5212 41.4174 21.5213 41.4174 21.5215C41.4174 21.5216 41.4174 21.5218 41.4174 21.522C41.4174 21.5221 41.4174 21.5223 41.4174 21.5224C41.4174 21.5226 41.4174 21.5228 41.4174 21.5229C41.4174 21.5231 41.4174 21.5232 41.4174 21.5234C41.4174 21.5235 41.4174 21.5237 41.4174 21.5239C41.4174 21.524 41.4174 21.5242 41.4174 21.5243C41.4174 21.5245 41.4174 21.5247 41.4174 21.5248C41.4174 21.525 41.4174 21.5251 41.4174 21.5253C41.4174 21.5255 41.4174 21.5256 41.4174 21.5258C41.4174 21.5259 41.4174 21.5261 41.4174 21.5262C41.4174 21.5264 41.4174 21.5266 41.4174 21.5267C41.4174 21.5269 41.4174 21.527 41.4174 21.5272C41.4174 21.5274 41.4174 21.5275 41.4174 21.5277C41.4174 21.5278 41.4174 21.528 41.4174 21.5282C41.4174 21.5283 41.4174 21.5285 41.4174 21.5286C41.4174 21.5288 41.4174 21.529 41.4174 21.5291C41.4174 21.5293 41.4174 21.5294 41.4174 21.5296C41.4174 21.5297 41.4174 21.5299 41.4174 21.5301C41.4174 21.5302 41.4174 21.5304 41.4174 21.5305C41.4174 21.5307 41.4174 21.5309 41.4174 21.531C41.4174 21.5312 41.4174 21.5313 41.4174 21.5315C41.4174 21.5317 41.4174 21.5318 41.4174 21.532C41.4174 21.5321 41.4174 21.5323 41.4174 21.5324C41.4174 21.5326 41.4174 21.5328 41.4174 21.5329C41.4174 21.5331 41.4174 21.5332 41.4174 21.5334C41.4174 21.5336 41.4174 21.5337 41.4174 21.5339C41.4174 21.534 41.4174 21.5342 41.4174 21.5344C41.4174 21.5345 41.4174 21.5347 41.4174 21.5348C41.4174 21.535 41.4174 21.5352 41.4174 21.5353C41.4174 21.5355 41.4174 21.5356 41.4174 21.5358C41.4174 21.5359 41.4174 21.5361 41.4174 21.5363C41.4174 21.5364 41.4174 21.5366 41.4174 21.5367C41.4174 21.5369 41.4174 21.5371 41.4174 21.5372C41.4174 21.5374 41.4174 21.5375 41.4174 21.5377C41.4174 21.5379 41.4174 21.538 41.4174 21.5382C41.4174 21.5383 41.4174 21.5385 41.4174 21.5386C41.4174 21.5388 41.4174 21.539 41.4174 21.5391C41.4174 21.5393 41.4174 21.5394 41.4174 21.5396C41.4174 21.5398 41.4174 21.5399 41.4174 21.5401C41.4174 21.5402 41.4174 21.5404 41.4174 21.5406C41.4174 21.5407 41.4174 21.5409 41.4174 21.541C41.4174 21.5412 41.4174 21.5413 41.4174 21.5415C41.4174 21.5417 41.4174 21.5418 41.4174 21.542C41.4174 21.5421 41.4174 21.5423 41.4174 21.5425C41.4174 21.5426 41.4174 21.5428 41.4174 21.5429C41.4174 21.5431 41.4174 21.5433 41.4174 21.5434C41.4174 21.5436 41.4174 21.5437 41.4174 21.5439C41.4174 21.5441 41.4174 21.5442 41.4174 21.5444C41.4174 21.5445 41.4174 21.5447 41.4174 21.5448C41.4174 21.545 41.4174 21.5452 41.4174 21.5453C41.4174 21.5455 41.4174 21.5456 41.4174 21.5458C41.4174 21.546 41.4174 21.5461 41.4174 21.5463C41.4174 21.5464 41.4174 21.5466 41.4174 21.5468C41.4174 21.5469 41.4174 21.5471 41.4174 21.5472C41.4174 21.5474 41.4174 21.5475 41.4174 21.5477C41.4174 21.5479 41.4174 21.548 41.4174 21.5482C41.4174 21.5483 41.4174 21.5485 41.4174 21.5487C41.4174 21.5488 41.4174 21.549 41.4174 21.5491C41.4174 21.5493 41.4174 21.5495 41.4174 21.5496C41.4174 21.5498 41.4174 21.5499 41.4174 21.5501C41.4174 21.5502 41.4174 21.5504 41.4174 21.5506C41.4174 21.5507 41.4174 21.5509 41.4174 21.551C41.4174 21.5512 41.4174 21.5514 41.4174 21.5515C41.4174 21.5517 41.4174 21.5518 41.4174 21.552C41.4174 21.5522 41.4174 21.5523 41.4174 21.5525C41.4174 21.5526 41.4174 21.5528 41.4174 21.553C41.4174 21.5531 41.4174 21.5533 41.4174 21.5534C41.4174 21.5536 41.4174 21.5537 41.4174 21.5539C41.4174 21.5541 41.4174 21.5542 41.4174 21.5544C41.4174 21.5545 41.4174 21.5547 41.4174 21.5549C41.4174 21.555 41.4174 21.5552 41.4174 21.5553C41.4174 21.5555 41.4174 21.5557 41.4174 21.5558C41.4174 21.556 41.4174 21.5561 41.4174 21.5563C41.4174 21.5564 41.4174 21.5566 41.4174 21.5568C41.4174 21.5569 41.4174 21.5571 41.4174 21.5572C41.4174 21.5574 41.4174 21.5576 41.4174 21.5577C41.4174 21.5579 41.4174 21.558 41.4174 21.5582C41.4174 21.5584 41.4174 21.5585 41.4174 21.5587C41.4174 21.5588 41.4174 21.559 41.4174 21.5592C41.4174 21.5593 41.4174 21.5595 41.4174 21.5596C41.4174 21.5598 41.4174 21.5599 41.4174 21.5601C41.4174 21.5603 41.4174 21.5604 41.4174 21.5606C41.4174 21.5607 41.4174 21.5609 41.4174 21.5611C41.4174 21.5612 41.4174 21.5614 41.4174 21.5615C41.4174 21.5617 41.4174 21.5619 41.4174 21.562C41.4174 21.5622 41.4174 21.5623 41.4174 21.5625C41.4174 21.5626 41.4174 21.5628 41.4174 21.563C41.4174 21.5631 41.4174 21.5633 41.4174 21.5634C41.4174 21.5636 41.4174 21.5638 41.4174 21.5639C41.4174 21.5641 41.4174 21.5642 41.4174 21.5644C41.4174 21.5646 41.4174 21.5647 41.4174 21.5649C41.4174 21.565 41.4174 21.5652 41.4174 21.5653C41.4174 21.5655 41.4174 21.5657 41.4174 21.5658C41.4174 21.566 41.4174 21.5661 41.4174 21.5663C41.4174 21.5665 41.4174 21.5666 41.4174 21.5668C41.4174 21.5669 41.4174 21.5671 41.4174 21.5673C41.4174 21.5674 41.4174 21.5676 41.4174 21.5677C41.4174 21.5679 41.4174 21.5681 41.4174 21.5682C41.4174 21.5684 41.4174 21.5685 41.4174 21.5687C41.4174 21.5688 41.4174 21.569 41.4174 21.5692C41.4174 21.5693 41.4174 21.5695 41.4174 21.5696C41.4174 21.5698 41.4174 21.57 41.4174 21.5701C41.4174 21.5703 41.4174 21.5704 41.4174 21.5706C41.4174 21.5708 41.4174 21.5709 41.4174 21.5711C41.4174 21.5712 41.4174 21.5714 41.4174 21.5715C41.4174 21.5717 41.4174 21.5719 41.4174 21.572C41.4174 21.5722 41.4174 21.5723 41.4174 21.5725C41.4174 21.5727 41.4174 21.5728 41.4174 21.573C41.4174 21.5731 41.4174 21.5733 41.4174 21.5735C41.4174 21.5736 41.4174 21.5738 41.4174 21.5739C41.4174 21.5741 41.4174 21.5743 41.4174 21.5744C41.4174 21.5746 41.4174 21.5747 41.4174 21.5749C41.4174 21.575 41.4174 21.5752 41.4174 21.5754C41.4174 21.5755 41.4174 21.5757 41.4174 21.5758C41.4174 21.576 41.4174 21.5762 41.4174 21.5763C41.4174 21.5765 41.4174 21.5766 41.4174 21.5768C41.4174 21.577 41.4174 21.5771 41.4174 21.5773C41.4174 21.5774 41.4174 21.5776 41.4174 21.5777C41.4174 21.5779 41.4174 21.5781 41.4174 21.5782C41.4174 21.5784 41.4174 21.5785 41.4174 21.5787C41.4174 21.5789 41.4174 21.579 41.4174 21.5792C41.4174 21.5793 41.4174 21.5795 41.4174 21.5797C41.4174 21.5798 41.4174 21.58 41.4174 21.5801C41.4174 21.5803 41.4174 21.5805 41.4174 21.5806C41.4174 21.5808 41.4174 21.5809 41.4174 21.5811C41.4174 21.5812 41.4174 21.5814 41.4174 21.5816C41.4174 21.5817 41.4174 21.5819 41.4174 21.582C41.4174 21.5822 41.4174 21.5824 41.4174 21.5825C41.4174 21.5827 41.4174 21.5828 41.4174 21.583C41.4174 21.5832 41.4174 21.5833 41.4174 21.5835C41.4174 21.5836 41.4174 21.5838 41.4174 21.5839C41.4174 21.5841 41.4174 21.5843 41.4174 21.5844C41.4174 21.5846 41.4174 21.5847 41.4174 21.5849C41.4174 21.5851 41.4174 21.5852 41.4174 21.5854C41.4174 21.5855 41.4174 21.5857 41.4174 21.5859C41.4174 21.586 41.4174 21.5862 41.4174 21.5863C41.4174 21.5865 41.4174 21.5866 41.4174 21.5868C41.4174 21.587 41.4174 21.5871 41.4174 21.5873C41.4174 21.5874 41.4174 21.5876 41.4174 21.5878C41.4174 21.5879 41.4174 21.5881 41.4174 21.5882C41.4174 21.5884 41.4174 21.5886 41.4174 21.5887C41.4174 21.5889 41.4174 21.589 41.4174 21.5892C41.4174 21.5893 41.4174 21.5895 41.4174 21.5897C41.4174 21.5898 41.4174 21.59 41.4174 21.5901C41.4174 21.5903 41.4174 21.5905 41.4174 21.5906C41.4174 21.5908 41.4174 21.5909 41.4174 21.5911C41.4174 21.5913 41.4174 21.5914 41.4174 21.5916C41.4174 21.5917 41.4174 21.5919 41.4174 21.5921C41.4174 21.5922 41.4174 21.5924 41.4174 21.5925C41.4174 21.5927 41.4174 21.5928 41.4174 21.593C41.4174 21.5932 41.4174 21.5933 41.4174 21.5935C41.4174 21.5936 41.4174 21.5938 41.4174 21.594C41.4174 21.5941 41.4174 21.5943 41.4174 21.5944C41.4174 21.5946 41.4174 21.5948 41.4174 21.5949C41.4174 21.5951 41.4174 21.5952 41.4174 21.5954C41.4174 21.5955 41.4174 21.5957 41.4174 21.5959C41.4174 21.596 41.4174 21.5962 41.4174 21.5963C41.4174 21.5965 41.4174 21.5967 41.4174 21.5968C41.4174 21.597 41.4174 21.5971 41.4174 21.5973C41.4174 21.5975 41.4174 21.5976 41.4174 21.5978C41.4174 21.5979 41.4174 21.5981 41.4174 21.5983C41.4174 21.5984 41.4174 21.5986 41.4174 21.5987C41.4174 21.5989 41.4174 21.599 41.4174 21.5992C41.4174 21.5994 41.4174 21.5995 41.4174 21.5997C41.4174 21.5998 41.4174 21.6 41.4174 21.6002C41.4174 21.6003 41.4174 21.6005 41.4174 21.6006C41.4174 21.6008 41.4174 21.601 41.4174 21.6011C41.4174 21.6013 41.4174 21.6014 41.4174 21.6016C41.4174 21.6017 41.4174 21.6019 41.4174 21.6021C41.4174 21.6022 41.4174 21.6024 41.4174 21.6025C41.4174 21.6027 41.4174 21.6029 41.4174 21.603C41.4174 21.6032 41.4174 21.6033 41.4174 21.6035C41.4174 21.6037 41.4174 21.6038 41.4174 21.604C41.4174 21.6041 41.4174 21.6043 41.4174 21.6045C41.4174 21.6046 41.4174 21.6048 41.4174 21.6049C41.4174 21.6051 41.4174 21.6052 41.4174 21.6054C41.4174 21.6056 41.4174 21.6057 41.4174 21.6059C41.4174 21.606 41.4174 21.6062 41.4174 21.6064C41.4174 21.6065 41.4174 21.6067 41.4174 21.6068C41.4174 21.607 41.4174 21.6072 41.4174 21.6073C41.4174 21.6075 41.4174 21.6076 41.4174 21.6078C41.4174 21.6079 41.4174 21.6081 41.4174 21.6083C41.4174 21.6084 41.4174 21.6086 41.4174 21.6087C41.4174 21.6089 41.4174 21.6091 41.4174 21.6092C41.4174 21.6094 41.4174 21.6095 41.4174 21.6097C41.4174 21.6099 41.4174 21.61 41.4174 21.6102C41.4174 21.6103 41.4174 21.6105 41.4174 21.6106C41.4174 21.6108 41.4174 21.611 41.4174 21.6111C41.4174 21.6113 41.4174 21.6114 41.4174 21.6116C41.4174 21.6118 41.4174 21.6119 41.4174 21.6121C41.4174 21.6122 41.4174 21.6124 41.4174 21.6126C41.4174 21.6127 41.4174 21.6129 41.4174 21.613C41.4174 21.6132 41.4174 21.6134 41.4174 21.6135C41.4174 21.6137 41.4174 21.6138 41.4174 21.614C41.4174 21.6141 41.4174 21.6143 41.4174 21.6145C41.4174 21.6146 41.4174 21.6148 41.4174 21.6149C41.4174 21.6151 41.4174 21.6153 41.4174 21.6154C41.4174 21.6156 41.4174 21.6157 41.4174 21.6159C41.4174 21.6161 41.4174 21.6162 41.4174 21.6164C41.4174 21.6165 41.4174 21.6167 41.4174 21.6168C41.4174 21.617 41.4174 21.6172 41.4174 21.6173C41.4174 21.6175 41.4174 21.6176 41.4174 21.6178C41.4174 21.618 41.4174 21.6181 41.4174 21.6183C41.4174 21.6184 41.4174 21.6186 41.4174 21.6188C41.4174 21.6189 41.4174 21.6191 41.4174 21.6192C41.4174 21.6194 41.4174 21.6196 41.4174 21.6197C41.4174 21.6199 41.4174 21.62 41.4174 21.6202C41.4174 21.6203 41.4174 21.6205 41.4174 21.6207C41.4174 21.6208 41.4174 21.621 41.4174 21.6211C41.4174 21.6213 41.4174 21.6215 41.4174 21.6216C41.4174 21.6218 41.4174 21.6219 41.4174 21.6221C41.4174 21.6223 41.4174 21.6224 41.4174 21.6226C41.4174 21.6227 41.4174 21.6229 41.4174 21.623H42.9888ZM42.9888 21.3789C42.9888 21.3251 42.9933 21.2707 43.0026 21.2151L41.4525 20.9568C41.4292 21.0965 41.4174 21.2374 41.4174 21.3789H42.9888ZM42.0734 20.3155C41.5136 20.4274 40.9372 20.5315 40.344 20.6277L40.5955 22.1789C41.2067 22.0798 41.8021 21.9723 42.3816 21.8564L42.0734 20.3155ZM40.3645 20.6247C39.7632 20.7059 39.1538 20.7872 38.5362 20.8685L38.7412 22.4265C39.3605 22.345 39.9718 22.2635 40.5749 22.182L40.3645 20.6247ZM39.3179 21.2525L38.7076 20.2027L37.3491 20.9926L37.9594 22.0424L39.3179 21.2525ZM44.9424 20.2344C47.408 19.5847 49.3827 18.7189 50.8154 17.6046L49.8506 16.3642C48.6466 17.3006 46.8941 18.095 44.542 18.7148L44.9424 20.2344ZM50.8154 17.6046C52.2838 16.4625 53.0963 15.0369 53.0963 13.3467H51.5248C51.5248 14.456 51.019 15.4555 49.8506 16.3642L50.8154 17.6046ZM53.0963 13.3467C53.0963 12.6262 52.9279 11.9213 52.4106 11.4327L51.3316 12.5751C51.4002 12.6399 51.5248 12.8302 51.5248 13.3467H53.0963ZM52.4267 11.4483C51.9463 10.968 51.307 10.7787 50.626 10.7787V12.3502C51.0191 12.3502 51.2099 12.4539 51.3155 12.5595L52.4267 11.4483ZM50.626 10.7787C49.9476 10.7787 49.2325 11.0344 48.5082 11.4407L49.277 12.8112C49.8873 12.4689 50.3278 12.3502 50.626 12.3502V10.7787ZM48.5211 11.4336C47.7636 11.8401 47.0536 12.4114 46.3876 13.13L47.5401 14.1982C48.1111 13.5821 48.6869 13.128 49.2641 12.8183L48.5211 11.4336ZM46.3876 13.13C45.704 13.8675 45.1312 14.7542 44.6625 15.7785L46.0914 16.4324C46.5016 15.5361 46.9867 14.7953 47.5401 14.1982L46.3876 13.13ZM44.658 15.7886C44.1853 16.8611 43.9565 18.0453 43.9565 19.3281H45.5279C45.5279 18.2347 45.7222 17.2704 46.0959 16.4223L44.658 15.7886ZM43.9565 19.3281V19.4746H45.5279V19.3281H43.9565Z" fill="black" mask="url(#path-1-outside-1_24_390)"/>
<path d="M6 82.66C5.64 82.66 5.24667 82.5733 4.82 82.4C4.40667 82.2133 4.01333 81.9 3.64 81.46C3.26667 81.02 2.96 80.4133 2.72 79.64C2.48 78.8667 2.36 77.8867 2.36 76.7C2.36 75.82 2.47333 74.9267 2.7 74.02C2.94 73.1 3.31333 72.2333 3.82 71.42C4.32667 70.6067 4.98 69.9 5.78 69.3C6.59333 68.7 7.56667 68.28 8.7 68.04C9.16667 67.9333 9.7 67.8333 10.3 67.74C10.9133 67.6333 11.5333 67.54 12.16 67.46C12.7867 67.3667 13.38 67.2933 13.94 67.24C14.5133 67.1867 14.9933 67.16 15.38 67.16C16.02 67.16 16.5 67.2467 16.82 67.42C17.14 67.5933 17.3533 67.7933 17.46 68.02C17.5667 68.2333 17.62 68.4267 17.62 68.6C17.62 68.8133 17.5533 69.0267 17.42 69.24C17.3 69.4533 16.9667 69.5933 16.42 69.66C16.3 69.6733 16.0467 69.7067 15.66 69.76C15.2733 69.8 14.8067 69.86 14.26 69.94C13.7267 70.02 13.16 70.1067 12.56 70.2C11.9733 70.28 11.4 70.3667 10.84 70.46C10.2933 70.54 9.82 70.6133 9.42 70.68C8.54 70.84 7.82667 71.1067 7.28 71.48C6.73333 71.84 6.30667 72.2667 6 72.76C5.70667 73.2533 5.49333 73.7733 5.36 74.32C5.89333 74.2 6.44667 74.08 7.02 73.96C7.59333 73.84 8.13333 73.7333 8.64 73.64C9.16 73.5467 9.60667 73.4733 9.98 73.42C10.3533 73.3667 10.6067 73.34 10.74 73.34C11.26 73.34 11.5733 73.4067 11.68 73.54C11.8 73.6733 11.86 73.88 11.86 74.16C11.86 74.4133 11.6333 74.7067 11.18 75.04C10.7267 75.36 10.0067 75.6867 9.02 76.02C8.03333 76.3533 6.74 76.6467 5.14 76.9C5.14 76.9133 5.14 76.92 5.14 76.92C5.11333 77.1867 5.09333 77.4933 5.08 77.84C5.06667 78.1733 5.06 78.5067 5.06 78.84C5.06 79.1733 5.08 79.4467 5.12 79.66C5.16 79.8733 5.23333 79.98 5.34 79.98C5.63333 79.98 6.04 79.92 6.56 79.8C7.08 79.68 7.62667 79.5333 8.2 79.36C8.77333 79.1867 9.30667 79.02 9.8 78.86C10.2933 78.6867 10.6533 78.5533 10.88 78.46C11.2133 78.3267 11.5467 78.1933 11.88 78.06C12.2267 77.9267 12.5 77.86 12.7 77.86C12.9 77.86 13.0733 77.94 13.22 78.1C13.3667 78.2467 13.4133 78.4733 13.36 78.78C13.3467 78.9133 13.2067 79.1333 12.94 79.44C12.6867 79.7333 12.3333 80.0667 11.88 80.44C11.44 80.8 10.9133 81.1533 10.3 81.5C9.7 81.8333 9.03333 82.1133 8.3 82.34C7.58 82.5533 6.81333 82.66 6 82.66ZM22.0714 83.5C20.8714 83.5 19.9247 83.1333 19.2314 82.4C18.5514 81.6533 18.2114 80.5933 18.2114 79.22C18.2114 78.4733 18.3114 77.6 18.5114 76.6C18.7114 75.5867 18.9714 74.52 19.2914 73.4C19.6247 72.2667 19.9781 71.1467 20.3514 70.04C20.7381 68.9333 21.1181 67.9067 21.4914 66.96C21.8647 66.0133 22.1914 65.22 22.4714 64.58C22.7114 64.0867 23.0514 63.84 23.4914 63.84C23.7714 63.84 23.9981 63.9267 24.1714 64.1C24.3581 64.2733 24.4514 64.5533 24.4514 64.94C24.4514 65.1267 24.3581 65.5333 24.1714 66.16C23.9847 66.7867 23.7381 67.56 23.4314 68.48C23.1381 69.3867 22.8181 70.3667 22.4714 71.42C22.1381 72.4733 21.8181 73.5333 21.5114 74.6C21.2181 75.6667 20.9781 76.6733 20.7914 77.62C20.6047 78.5533 20.5114 79.3467 20.5114 80C20.5114 80.2667 20.5847 80.48 20.7314 80.64C20.8914 80.8 21.0981 80.88 21.3514 80.88C21.8981 80.88 22.4581 80.78 23.0314 80.58C23.6181 80.38 24.1914 80.1267 24.7514 79.82C25.3247 79.5133 25.8647 79.1867 26.3714 78.84C26.8781 78.4933 27.3314 78.1667 27.7314 77.86C28.1447 77.54 28.4781 77.2867 28.7314 77.1C29.0647 76.8467 29.2914 76.72 29.4114 76.72C29.8647 76.72 30.0914 76.94 30.0914 77.38C30.0914 77.4867 29.9581 77.7067 29.6914 78.04C29.4647 78.3333 29.1447 78.7067 28.7314 79.16C28.3181 79.6133 27.8381 80.0933 27.2914 80.6C26.7581 81.0933 26.1847 81.56 25.5714 82C24.9714 82.44 24.3714 82.8 23.7714 83.08C23.1714 83.36 22.6047 83.5 22.0714 83.5ZM31.5559 83.18C30.7293 83.18 30.0626 82.8933 29.5559 82.32C29.0493 81.7333 28.7959 80.7933 28.7959 79.5C28.7959 78.6733 28.8893 77.8467 29.0759 77.02C29.2759 76.18 29.5493 75.3867 29.8959 74.64C30.2559 73.88 30.6693 73.2067 31.1359 72.62C31.6159 72.0333 32.1426 71.5733 32.7159 71.24C33.2893 70.8933 33.8826 70.72 34.4959 70.72C35.5359 70.72 36.3493 71 36.9359 71.56C37.5226 72.12 37.8159 72.8333 37.8159 73.7C37.8159 74.3667 37.6293 74.9733 37.2559 75.52C36.8959 76.0533 36.4026 76.5333 35.7759 76.96C35.1493 77.3867 34.4493 77.7733 33.6759 78.12C32.9026 78.4667 32.1093 78.78 31.2959 79.06C31.2293 79.54 31.1959 79.9667 31.1959 80.34C31.1959 80.5667 31.3226 80.68 31.5759 80.68C32.1759 80.68 32.8159 80.5867 33.4959 80.4C34.1893 80.2 34.8893 79.9467 35.5959 79.64C36.3026 79.32 36.9826 78.9933 37.6359 78.66C38.2893 78.3133 38.8826 77.9867 39.4159 77.68C39.9626 77.36 40.4093 77.1067 40.7559 76.92C41.1159 76.72 41.3493 76.62 41.4559 76.62C41.7493 76.62 41.9626 76.7067 42.0959 76.88C42.2293 77.0533 42.2959 77.24 42.2959 77.44C42.2959 77.5333 42.1159 77.74 41.7559 78.06C41.4093 78.38 40.9293 78.76 40.3159 79.2C39.7159 79.6267 39.0359 80.0733 38.2759 80.54C37.5293 80.9933 36.7493 81.4267 35.9359 81.84C35.1359 82.24 34.3559 82.56 33.5959 82.8C32.8493 83.0533 32.1693 83.18 31.5559 83.18ZM31.6359 77.28C32.1826 76.96 32.7226 76.6267 33.2559 76.28C33.8026 75.92 34.2559 75.52 34.6159 75.08C34.9759 74.6267 35.1559 74.1 35.1559 73.5C35.1559 73.3267 35.1093 73.2133 35.0159 73.16C34.9226 73.0933 34.7893 73.06 34.6159 73.06C34.1493 73.06 33.7226 73.2667 33.3359 73.68C32.9626 74.0933 32.6293 74.6267 32.3359 75.28C32.0559 75.92 31.8226 76.5867 31.6359 77.28ZM43.6406 82.48C43.294 82.48 42.9873 82.3133 42.7206 81.98C42.4673 81.6467 42.274 81.1333 42.1406 80.44C42.034 79.8533 41.9406 79.1867 41.8606 78.44C41.7806 77.6933 41.7073 76.96 41.6406 76.24C41.5873 75.5067 41.5473 74.8667 41.5206 74.32C41.494 73.7733 41.4806 73.4 41.4806 73.2C41.4806 72.48 41.6073 71.8867 41.8606 71.42C42.114 70.94 42.6006 70.7 43.3206 70.7C43.6273 70.7 43.8606 70.8333 44.0206 71.1C44.1806 71.3533 44.2606 71.7067 44.2606 72.16C44.2606 72.44 44.2606 72.7933 44.2606 73.22C44.274 73.6333 44.2873 74.1 44.3006 74.62C44.314 75.1933 44.3273 75.8133 44.3406 76.48C44.3673 77.1333 44.3806 77.7867 44.3806 78.44C44.8473 77.7067 45.3473 76.9267 45.8806 76.1C46.414 75.26 46.934 74.4467 47.4406 73.66C47.9606 72.8733 48.4273 72.18 48.8406 71.58C49.254 70.9667 49.5673 70.5333 49.7806 70.28C49.9673 70.0533 50.194 69.86 50.4606 69.7C50.7273 69.5267 51.0073 69.44 51.3006 69.44C51.6206 69.44 51.8873 69.5667 52.1006 69.82C52.314 70.0733 52.4206 70.3667 52.4206 70.7C52.4206 70.9533 52.3673 71.1933 52.2606 71.42C52.1673 71.6467 52.0473 71.86 51.9006 72.06C51.5006 72.62 51.0273 73.2733 50.4806 74.02C49.9473 74.7667 49.3873 75.5533 48.8006 76.38C48.214 77.1933 47.6406 77.98 47.0806 78.74C46.534 79.5 46.0473 80.1733 45.6206 80.76C45.274 81.2533 44.994 81.6267 44.7806 81.88C44.5673 82.12 44.374 82.28 44.2006 82.36C44.0406 82.44 43.854 82.48 43.6406 82.48ZM53.6106 83.26C53.184 83.26 52.7973 83.14 52.4506 82.9C52.104 82.6733 51.8306 82.3733 51.6306 82C51.4306 81.6133 51.3306 81.2 51.3306 80.76C51.3306 79.9333 51.5106 79.1267 51.8706 78.34C52.244 77.5533 52.7306 76.8067 53.3306 76.1C53.9306 75.3933 54.584 74.7467 55.2906 74.16C56.0106 73.56 56.724 73.0467 57.4306 72.62C58.1506 72.1933 58.804 71.86 59.3906 71.62C59.9906 71.38 60.4573 71.26 60.7906 71.26C61.1773 71.26 61.4906 71.3467 61.7306 71.52C61.984 71.68 62.1106 71.9333 62.1106 72.28C62.1106 72.3867 62.084 72.4733 62.0306 72.54C62.204 72.58 62.344 72.68 62.4506 72.84C62.5573 73 62.6106 73.24 62.6106 73.56C62.6106 73.6933 62.5773 74.04 62.5106 74.6C62.444 75.16 62.3706 75.84 62.2906 76.64C62.224 77.44 62.1906 78.2733 62.1906 79.14C62.1906 79.2733 62.2106 79.3933 62.2506 79.5C62.2906 79.5933 62.3773 79.64 62.5106 79.64C63.044 79.64 63.584 79.5333 64.1306 79.32C64.6906 79.0933 65.2306 78.82 65.7506 78.5C66.284 78.1667 66.764 77.84 67.1906 77.52C67.6306 77.1867 67.9973 76.9133 68.2906 76.7C68.5973 76.4733 68.7973 76.36 68.8906 76.36C69.344 76.36 69.5706 76.5867 69.5706 77.04C69.5706 77.16 69.424 77.4133 69.1306 77.8C68.8506 78.1733 68.464 78.6067 67.9706 79.1C67.4773 79.58 66.924 80.06 66.3106 80.54C65.7106 81.0067 65.084 81.3933 64.4306 81.7C63.7906 82.0067 63.1706 82.16 62.5706 82.16C61.8373 82.16 61.2773 81.9867 60.8906 81.64C60.5173 81.2933 60.2506 80.8267 60.0906 80.24C59.944 79.64 59.864 78.9667 59.8506 78.22C59.1706 79.1933 58.464 80.06 57.7306 80.82C57.0106 81.5667 56.2973 82.16 55.5906 82.6C54.884 83.04 54.224 83.26 53.6106 83.26ZM60.6906 73.24C59.384 73.8667 58.2106 74.5867 57.1706 75.4C56.1306 76.2 55.304 77.04 54.6906 77.92C54.0906 78.8 53.7906 79.6467 53.7906 80.46C53.7906 80.6867 53.8973 80.8 54.1106 80.8C54.364 80.8 54.6973 80.6533 55.1106 80.36C55.5373 80.0667 55.9973 79.68 56.4906 79.2C56.984 78.7067 57.4773 78.16 57.9706 77.56C58.464 76.9467 58.924 76.32 59.3506 75.68C59.7773 75.04 60.1173 74.4267 60.3706 73.84C60.464 73.6267 60.5706 73.4267 60.6906 73.24ZM82.2894 72.42C82.2894 72.58 82.236 72.72 82.1294 72.84C82.0227 72.96 81.8894 73.0533 81.7294 73.12C81.5027 73.2133 81.1094 73.3333 80.5494 73.48C79.9894 73.6267 79.3094 73.7933 78.5094 73.98C77.7227 74.1667 76.876 74.36 75.9694 74.56C75.0627 74.7467 74.156 74.9267 73.2494 75.1C72.9027 76.38 72.5494 77.7 72.1894 79.06C71.8294 80.4067 71.4694 81.7333 71.1094 83.04C70.976 83.5067 70.816 83.86 70.6294 84.1C70.4427 84.3533 70.1227 84.48 69.6694 84.48C69.176 84.48 68.8427 84.32 68.6694 84C68.5094 83.6933 68.4894 83.2733 68.6094 82.74C68.956 81.2867 69.276 79.9333 69.5694 78.68C69.876 77.4267 70.1227 76.4133 70.3094 75.64C69.5094 75.7733 68.8094 75.88 68.2094 75.96C67.6094 76.0267 67.1827 76.0533 66.9294 76.04C66.6494 76.0133 66.416 75.9 66.2294 75.7C66.0427 75.5 65.956 75.2533 65.9694 74.96C65.996 74.6933 66.116 74.4667 66.3294 74.28C66.5427 74.08 66.796 73.96 67.0894 73.92C67.5027 73.88 68.036 73.82 68.6894 73.74C69.3427 73.66 70.0627 73.5667 70.8494 73.46C71.0227 72.78 71.2227 72.08 71.4494 71.36C71.676 70.6267 71.9094 69.9267 72.1494 69.26C72.4027 68.58 72.6427 67.9867 72.8694 67.48C73.096 66.9733 73.3027 66.6067 73.4894 66.38C73.636 66.2067 73.816 66.0733 74.0294 65.98C74.256 65.8867 74.476 65.84 74.6894 65.84C74.9694 65.84 75.196 65.94 75.3694 66.14C75.5427 66.34 75.6294 66.5733 75.6294 66.84C75.6294 66.9467 75.6227 67.06 75.6094 67.18C75.596 67.2867 75.5694 67.3933 75.5294 67.5C75.276 68.1667 75.0027 68.9733 74.7094 69.92C74.4294 70.8667 74.136 71.9067 73.8294 73.04C74.8294 72.8933 75.8094 72.7467 76.7694 72.6C77.7427 72.44 78.6227 72.2933 79.4094 72.16C80.2094 72.0133 80.8494 71.8867 81.3294 71.78C81.596 71.6867 81.8227 71.7067 82.0094 71.84C82.196 71.96 82.2894 72.1533 82.2894 72.42ZM82.7278 83.18C81.9011 83.18 81.2345 82.8933 80.7278 82.32C80.2211 81.7333 79.9678 80.7933 79.9678 79.5C79.9678 78.6733 80.0611 77.8467 80.2478 77.02C80.4478 76.18 80.7211 75.3867 81.0678 74.64C81.4278 73.88 81.8411 73.2067 82.3078 72.62C82.7878 72.0333 83.3145 71.5733 83.8878 71.24C84.4611 70.8933 85.0545 70.72 85.6678 70.72C86.7078 70.72 87.5211 71 88.1078 71.56C88.6945 72.12 88.9878 72.8333 88.9878 73.7C88.9878 74.3667 88.8011 74.9733 88.4278 75.52C88.0678 76.0533 87.5745 76.5333 86.9478 76.96C86.3211 77.3867 85.6211 77.7733 84.8478 78.12C84.0745 78.4667 83.2811 78.78 82.4678 79.06C82.4011 79.54 82.3678 79.9667 82.3678 80.34C82.3678 80.5667 82.4945 80.68 82.7478 80.68C83.3478 80.68 83.9878 80.5867 84.6678 80.4C85.3611 80.2 86.0611 79.9467 86.7678 79.64C87.4745 79.32 88.1545 78.9933 88.8078 78.66C89.4611 78.3133 90.0545 77.9867 90.5878 77.68C91.1345 77.36 91.5811 77.1067 91.9278 76.92C92.2878 76.72 92.5211 76.62 92.6278 76.62C92.9211 76.62 93.1345 76.7067 93.2678 76.88C93.4011 77.0533 93.4678 77.24 93.4678 77.44C93.4678 77.5333 93.2878 77.74 92.9278 78.06C92.5811 78.38 92.1011 78.76 91.4878 79.2C90.8878 79.6267 90.2078 80.0733 89.4478 80.54C88.7011 80.9933 87.9211 81.4267 87.1078 81.84C86.3078 82.24 85.5278 82.56 84.7678 82.8C84.0211 83.0533 83.3411 83.18 82.7278 83.18ZM82.8078 77.28C83.3545 76.96 83.8945 76.6267 84.4278 76.28C84.9745 75.92 85.4278 75.52 85.7878 75.08C86.1478 74.6267 86.3278 74.1 86.3278 73.5C86.3278 73.3267 86.2811 73.2133 86.1878 73.16C86.0945 73.0933 85.9611 73.06 85.7878 73.06C85.3211 73.06 84.8945 73.2667 84.5078 73.68C84.1345 74.0933 83.8011 74.6267 83.5078 75.28C83.2278 75.92 82.9945 76.5867 82.8078 77.28Z" fill="black"/>
</svg>
